<?xml version="1.0" encoding="utf-8"?>
<!-- Generator: Adobe Illustrator 17.1.0, SVG Export Plug-In . SVG Version: 6.00 Build 0)  -->
<!DOCTYPE svg PUBLIC "-//W3C//DTD SVG 1.1//EN" "http://www.w3.org/Graphics/SVG/1.1/DTD/svg11.dtd">
<svg version="1.1" id="Layer_1" xmlns:sketch="http://www.bohemiancoding.com/sketch/ns"
	 xmlns="http://www.w3.org/2000/svg" xmlns:xlink="http://www.w3.org/1999/xlink" x="0px" y="0px" viewBox="0 0 17 18"
	 enable-background="new 0 0 17 18" xml:space="preserve">
<title>Oval 5 + Rectangle 17 Copy</title>
<desc>Created with Sketch.</desc>
<g id="Page-1" sketch:type="MSPage">
	<g id="Map-country" transform="translate(-1057.000000, -128.000000)" sketch:type="MSArtboardGroup">
		<g id="Oval-5-_x2B_-Rectangle-17-Copy" transform="translate(1058.000000, 129.500000)" sketch:type="MSLayerGroup">
			<path id="Oval-5" sketch:type="MSShapeGroup" fill="none" stroke="#afafaf" stroke-width="2" d="M6,12c3.3,0,6-2.7,6-6S9.3,0,6,0
				S0,2.7,0,6S2.7,12,6,12z"/>
			<path id="Rectangle-17" sketch:type="MSShapeGroup" fill="#afafaf" d="M10.5,11L10.5,11c0.5-0.5,1.8,0.1,2.9,1.2l0,0
				c1.1,1.2,1.5,2.5,1,3l0,0c-0.5,0.5-1.8-0.1-2.9-1.2l0,0C10.4,12.8,10,11.5,10.5,11z"/>
		</g>
	</g>
</g>
</svg>
