<svg width="13" height="14" viewBox="0 0 13 14" fill="none" xmlns="http://www.w3.org/2000/svg">
<path d="M3.17678 3.59172H3.36277C3.64542 3.59172 3.87454 3.36252 3.87454 3.07995V1.66768V1.13943C3.87454 0.856857 3.64542 0.627686 3.36277 0.627686H3.17678C2.89416 0.627686 2.66504 0.856857 2.66504 1.13943V1.66771V3.07995C2.66504 3.36252 2.89416 3.59172 3.17678 3.59172Z" fill="#555555"/>
<path d="M9.74092 3.57902H9.92691C10.2095 3.57902 10.4387 3.34985 10.4387 3.06725V1.53363V1.12671C10.4387 0.844162 10.2095 0.61499 9.92691 0.61499H9.74092C9.45824 0.61499 9.22913 0.844162 9.22913 1.12671V1.53363V3.06723C9.22918 3.34985 9.4583 3.57902 9.74092 3.57902Z" fill="#555555"/>
<path d="M12.168 1.66772H10.8546V3.20132C10.8546 3.7129 10.4384 3.99507 9.92692 3.99507H9.74093C9.22935 3.99507 8.81318 3.57886 8.81318 3.06728V1.66772H4.29051V3.07996C4.29051 3.59154 3.87434 4.00775 3.36276 4.00775H3.17677C2.66522 4.00775 2.24904 3.59154 2.24904 3.07996V1.66772H0.831977C0.373232 1.66772 0 2.04096 0 2.49973V12.5531C0 13.0119 0.373232 13.3851 0.831977 13.3851H12.168C12.6268 13.3851 13 13.0119 13 12.5531V2.49973C13.0001 2.04098 12.6268 1.66772 12.168 1.66772ZM12.168 12.5531H0.832004L0.831977 4.96105H12.1682L12.1686 12.5531C12.1686 12.5531 12.1684 12.5531 12.168 12.5531Z" fill="#555555"/>
<path d="M6.92949 7.50759H8.42336C8.48257 7.50759 8.53058 7.45958 8.53058 7.40036V6.1068C8.53058 6.04758 8.48257 5.99957 8.42336 5.99957H6.92949C6.87028 5.99957 6.82227 6.04758 6.82227 6.1068V7.40036C6.82227 7.45958 6.87028 7.50759 6.92949 7.50759Z" fill="#555555"/>
<path d="M9.36748 7.50759H10.8613C10.9206 7.50759 10.9686 7.45958 10.9686 7.40036V6.1068C10.9686 6.04758 10.9206 5.99957 10.8613 5.99957H9.36748C9.30826 5.99957 9.26025 6.04758 9.26025 6.1068V7.40036C9.26025 7.45958 9.30826 7.50759 9.36748 7.50759Z" fill="#555555"/>
<path d="M2.05364 9.62529H3.54748C3.60669 9.62529 3.6547 9.57728 3.6547 9.51807V8.22448C3.6547 8.16526 3.60669 8.11725 3.54748 8.11725H2.05364C1.99442 8.11725 1.94641 8.16526 1.94641 8.22448V9.51807C1.94641 9.57728 1.99442 9.62529 2.05364 9.62529Z" fill="#555555"/>
<path d="M4.49163 9.62529H5.98546C6.04468 9.62529 6.09269 9.57728 6.09269 9.51807V8.22448C6.09269 8.16526 6.04468 8.11725 5.98546 8.11725H4.49163C4.43241 8.11725 4.3844 8.16526 4.3844 8.22448V9.51807C4.3844 9.57728 4.43241 9.62529 4.49163 9.62529Z" fill="#555555"/>
<path d="M6.92962 9.62529H8.42345C8.48267 9.62529 8.53068 9.57728 8.53068 9.51807V8.22448C8.53068 8.16526 8.48267 8.11725 8.42345 8.11725H6.92962C6.8704 8.11725 6.82239 8.16526 6.82239 8.22448V9.51807C6.82239 9.57728 6.8704 9.62529 6.92962 9.62529Z" fill="#555555"/>
<path d="M9.36748 9.62529H10.8613C10.9206 9.62529 10.9686 9.57728 10.9686 9.51807V8.22448C10.9686 8.16526 10.9206 8.11725 10.8613 8.11725H9.36748C9.30826 8.11725 9.26025 8.16526 9.26025 8.22448V9.51807C9.26025 9.57728 9.30826 9.62529 9.36748 9.62529Z" fill="#555555"/>
<path d="M3.54745 10.235H2.05364C1.99442 10.235 1.94641 10.2831 1.94641 10.3423V11.6359C1.94641 11.6951 1.99442 11.7431 2.05364 11.7431H3.54748C3.60669 11.7431 3.6547 11.6951 3.6547 11.6359V10.3423C3.65468 10.2831 3.60667 10.235 3.54745 10.235Z" fill="#555555"/>
<path d="M5.98546 10.235H4.49163C4.43241 10.235 4.3844 10.2831 4.3844 10.3423V11.6359C4.3844 11.6951 4.43241 11.7431 4.49163 11.7431H5.98546C6.04468 11.7431 6.09269 11.6951 6.09269 11.6359V10.3423C6.09269 10.2831 6.04468 10.235 5.98546 10.235Z" fill="#555555"/>
<path d="M8.42348 10.235H6.92962C6.8704 10.235 6.82239 10.2831 6.82239 10.3423V11.6359C6.82239 11.6951 6.8704 11.7431 6.92962 11.7431H8.42348C8.4827 11.7431 8.53071 11.6951 8.53071 11.6359V10.3423C8.53071 10.2831 8.4827 10.235 8.42348 10.235Z" fill="#555555"/>
<path d="M10.8613 10.235H9.36748C9.30826 10.235 9.26025 10.2831 9.26025 10.3423V11.6359C9.26025 11.6951 9.30826 11.7431 9.36748 11.7431H10.8613C10.9206 11.7431 10.9686 11.6951 10.9686 11.6359V10.3423C10.9686 10.2831 10.9206 10.235 10.8613 10.235Z" fill="#555555"/>
</svg>
