<?xml version="1.0" encoding="utf-8"?>
<!-- Generator: Adobe Illustrator 19.1.0, SVG Export Plug-In . SVG Version: 6.00 Build 0)  -->
<svg version="1.1" id="Capa_1" xmlns="http://www.w3.org/2000/svg" xmlns:xlink="http://www.w3.org/1999/xlink" x="0px" y="0px"
	 viewBox="0 0 275.8 88" style="enable-background:new 0 0 275.8 88;" xml:space="preserve">
<style type="text/css">
	.st0{fill:#FFFFFF;}
	.st1{fill:#0096D6;}
	.st2{fill:#49A942;}
</style>
<g>
	<path class="st0" d="M0,35.1L0,35.1c0-4.8,3.6-8.6,8.7-8.6c3.1,0,5,1,6.6,2.6l-2.3,2.7c-1.3-1.2-2.6-1.9-4.3-1.9
		c-2.8,0-4.8,2.3-4.8,5.2v0c0,2.9,2,5.2,4.8,5.2c1.9,0,3.1-0.8,4.4-1.9l2.3,2.4c-1.7,1.8-3.6,3-6.8,3C3.6,43.6,0,39.8,0,35.1"/>
	<path class="st0" d="M16.2,35.1L16.2,35.1c0-4.8,3.7-8.6,8.9-8.6c5.1,0,8.8,3.8,8.8,8.6v0c0,4.7-3.7,8.6-8.9,8.6
		C19.9,43.6,16.2,39.8,16.2,35.1 M30,35.1L30,35.1c0-2.9-2.1-5.3-5-5.3c-2.9,0-5,2.3-5,5.2v0c0,2.9,2.1,5.2,5,5.2
		C28,40.2,30,37.9,30,35.1"/>
	<polygon class="st0" points="36.3,26.7 39.7,26.7 47.5,36.9 47.5,26.7 51.1,26.7 51.1,43.3 48,43.3 39.9,32.8 39.9,43.3 36.3,43.3 
			"/>
	<path class="st0" d="M54,40.9l2.2-2.6c1.5,1.2,3.1,2,5,2c1.5,0,2.4-0.6,2.4-1.6v0c0-0.9-0.6-1.4-3.3-2.1c-3.4-0.9-5.5-1.8-5.5-5.1
		v0c0-3,2.4-5,5.8-5c2.4,0,4.5,0.8,6.2,2.1l-1.9,2.8c-1.5-1-2.9-1.6-4.3-1.6c-1.4,0-2.1,0.6-2.1,1.4v0c0,1.1,0.7,1.4,3.6,2.2
		c3.4,0.9,5.3,2.1,5.3,5v0c0,3.3-2.5,5.2-6.1,5.2C58.5,43.6,56,42.7,54,40.9"/>
	<polygon class="st0" points="70.4,26.7 82.9,26.7 82.9,30 74,30 74,33.3 81.8,33.3 81.8,36.6 74,36.6 74,40.1 83,40.1 83,43.3 
		70.4,43.3 	"/>
	<path class="st0" d="M86.8,26.7h7.6c2.1,0,3.8,0.6,4.8,1.7c0.9,0.9,1.4,2.2,1.4,3.8v0c0,2.7-1.4,4.4-3.6,5.2l4.1,5.9h-4.3L93.3,38
		h0h-2.8v5.3h-3.7V26.7z M94.2,34.8c1.8,0,2.8-0.9,2.8-2.3v-0.1c0-1.6-1.1-2.4-2.9-2.4h-3.6v4.8H94.2z"/>
	<polygon class="st0" points="102,26.7 106,26.7 110.4,38.4 114.7,26.7 118.7,26.7 112,43.5 108.7,43.5 	"/>
	<path class="st0" d="M124.3,26.6h3.4l7.1,16.7H131l-1.5-3.7h-7l-1.5,3.7h-3.7L124.3,26.6z M128.1,36.4l-2.2-5.4l-2.2,5.4H128.1z"/>
	<polygon class="st0" points="138.8,30.1 133.8,30.1 133.8,26.7 147.6,26.7 147.6,30.1 142.5,30.1 142.5,43.3 138.8,43.3 	"/>
	<rect x="150.3" y="26.7" class="st0" width="3.7" height="16.6"/>
	<path class="st0" d="M156.9,35.1L156.9,35.1c0-4.8,3.7-8.6,8.9-8.6c5.1,0,8.8,3.8,8.8,8.6v0c0,4.7-3.7,8.6-8.9,8.6
		C160.6,43.6,156.9,39.8,156.9,35.1 M170.8,35.1L170.8,35.1c0-2.9-2.1-5.3-5-5.3c-2.9,0-5,2.3-5,5.2v0c0,2.9,2.1,5.2,5,5.2
		C168.7,40.2,170.8,37.9,170.8,35.1"/>
	<polygon class="st0" points="177.6,26.7 181,26.7 188.8,36.9 188.8,26.7 192.4,26.7 192.4,43.3 189.3,43.3 181.2,32.8 181.2,43.3 
		177.6,43.3 	"/>
	<rect x="2.3" y="49.9" class="st0" width="1.8" height="16.2"/>
	<polygon class="st0" points="8.5,49.9 10.3,49.9 20.5,62.9 20.5,49.9 22.2,49.9 22.2,66.1 20.8,66.1 10.3,52.9 10.3,66.1 8.5,66.1 
			"/>
	<polygon class="st0" points="30.8,51.6 25.4,51.6 25.4,49.9 38.1,49.9 38.1,51.6 32.7,51.6 32.7,66.1 30.8,66.1 	"/>
	<polygon class="st0" points="41.2,49.9 52.9,49.9 52.9,51.6 43,51.6 43,57.1 51.9,57.1 51.9,58.8 43,58.8 43,64.5 53,64.5 53,66.1 
		41.2,66.1 	"/>
	<path class="st0" d="M56.4,49.9h7c2,0,3.6,0.6,4.6,1.6c0.8,0.8,1.2,1.9,1.2,3.2v0c0,2.7-1.9,4.3-4.4,4.7l5,6.6h-2.2l-4.7-6.3h0
		h-4.6v6.3h-1.8V49.9z M63.2,58.2c2.4,0,4.2-1.3,4.2-3.3v0c0-2-1.5-3.2-4.1-3.2h-5v6.6H63.2z"/>
	<polygon class="st0" points="72.8,49.9 74.5,49.9 84.7,62.9 84.7,49.9 86.5,49.9 86.5,66.1 85.1,66.1 74.6,52.9 74.6,66.1 
		72.8,66.1 	"/>
	<path class="st0" d="M96.8,49.8h1.7l7.4,16.3h-2l-1.9-4.3h-8.8l-1.9,4.3h-1.9L96.8,49.8z M101.3,60.2L97.6,52l-3.7,8.3H101.3z"/>
	<polygon class="st0" points="111,51.6 105.5,51.6 105.5,49.9 118.3,49.9 118.3,51.6 112.8,51.6 112.8,66.1 111,66.1 	"/>
	<rect x="121.6" y="49.9" class="st0" width="1.8" height="16.2"/>
	<path class="st0" d="M127.1,58.1L127.1,58.1c0-4.5,3.4-8.4,8.3-8.4c4.9,0,8.2,3.9,8.2,8.3c0,0,0,0,0,0c0,4.5-3.4,8.4-8.3,8.4
		C130.4,66.4,127.1,62.5,127.1,58.1 M141.7,58.1L141.7,58.1c0-3.7-2.7-6.7-6.4-6.7c-3.7,0-6.3,3-6.3,6.6v0c0,3.7,2.7,6.7,6.4,6.7
		C139.1,64.7,141.7,61.8,141.7,58.1"/>
	<polygon class="st0" points="147.2,49.9 148.9,49.9 159.1,62.9 159.1,49.9 160.9,49.9 160.9,66.1 159.4,66.1 149,52.9 149,66.1 
		147.2,66.1 	"/>
	<path class="st0" d="M171.2,49.8h1.7l7.4,16.3h-2l-1.9-4.3h-8.8l-1.9,4.3h-1.9L171.2,49.8z M175.7,60.2L172,52l-3.7,8.3H175.7z"/>
	<polygon class="st0" points="183.1,49.9 185,49.9 185,64.4 194.1,64.4 194.1,66.1 183.1,66.1 	"/>
</g>
<g>
	<path class="st1" d="M216.1,59.7c-6.3-6.3-10.3-15.1-10.2-24.7c0-9.6,3.9-18.4,10.2-24.7C222.4,3.9,231.2,0,240.8,0
		c9.6,0,18.4,3.9,24.7,10.2c6.3,6.3,10.2,15.1,10.2,24.7c0,9.6-3.9,18.4-10.2,24.7c-6.3,6.3-15.1,10.3-24.7,10.2h0
		C231.2,70,222.4,66.1,216.1,59.7 M225.6,19.8c-3.9,3.9-6.3,9.2-6.3,15.2c0,6,2.4,11.3,6.3,15.2c3.9,3.9,9.2,6.3,15.2,6.3
		c6,0,11.3-2.4,15.2-6.3c3.9-3.9,6.3-9.2,6.3-15.2c0-6-2.4-11.3-6.3-15.2c-3.9-3.9-9.2-6.3-15.2-6.3
		C234.9,13.5,229.6,15.9,225.6,19.8"/>
	<rect x="214.9" y="74.5" class="st2" width="51.8" height="13.5"/>
</g>
</svg>
