<?xml version="1.0" standalone="no"?>
<!DOCTYPE svg PUBLIC "-//W3C//DTD SVG 1.1//EN" "http://www.w3.org/Graphics/SVG/1.1/DTD/svg11.dtd" >
<svg xmlns="http://www.w3.org/2000/svg" xmlns:xlink="http://www.w3.org/1999/xlink" version="1.1">
<metadata>
Created by FontForge 20141024 at Tue Jun 30 10:38:16 2015
 By Jimmy Warting
Copyright 1995, 2002 Adobe Systems Incorporated. All rights reserved. ITC is a trademark of International Typeface Corporation registered in the U.S. Patent and Trademark Office and may be registered in certain other jurisdictions. Franklin Gothic is a trademark of International Typeface Corporation and may be registered in certain jurisdictions.
</metadata>
<defs>
<font id="ITCFranklinGothicStd-Med" horiz-adv-x="587" >
  <font-face 
    font-family="ITC Franklin Gothic Std"
    font-weight="500"
    font-stretch="normal"
    units-per-em="1000"
    panose-1="2 11 7 4 3 5 3 2 2 4"
    ascent="686"
    descent="-314"
    x-height="493"
    cap-height="667"
    bbox="-169 -250 1093 891"
    underline-thickness="50"
    underline-position="-50"
    stemh="87"
    stemv="111"
    unicode-range="U+0020-FB02"
  />
<missing-glyph horiz-adv-x="500" 
d="M0 0v700h500v-700h-500zM250 395l170 255h-340zM280 350l170 -255v510zM80 50h340l-170 255zM50 605v-510l170 255z" />
    <glyph glyph-name="f_i" unicode="fi" horiz-adv-x="540" 
d="M473 667v-117h-115v117h115zM473 493v-493h-115v493h115zM199 406v-406h-115v406h-73v87h73c1 43 2 92 32 130c19 25 58 54 123 54c23 0 43 -1 68 -5v-88h-26c-70 -1 -82 -22 -82 -72v-19h108v-87h-108z" />
    <glyph glyph-name="f_l" unicode="fl" horiz-adv-x="540" 
d="M474 667v-667h-115v667h115zM199 406v-406h-115v406h-73v87h73c1 43 2 92 32 130c19 25 58 54 123 54c23 0 43 -1 68 -5v-88h-26c-70 -1 -82 -22 -82 -72v-19h108v-87h-108z" />
    <glyph glyph-name=".notdef" horiz-adv-x="500" 
d="M0 0v700h500v-700h-500zM250 395l170 255h-340zM280 350l170 -255v510zM80 50h340l-170 255zM50 605v-510l170 255z" />
    <glyph glyph-name="space" unicode=" " horiz-adv-x="290" 
 />
    <glyph glyph-name="exclam" unicode="!" horiz-adv-x="275" 
d="M199 122v-122h-122v122h122zM214 667l-49 -465h-51l-47 465h147z" />
    <glyph glyph-name="quotedbl" unicode="&#x22;" horiz-adv-x="375" 
d="M144 399h-77l-16 268h109zM309 399h-77l-16 268h109z" />
    <glyph glyph-name="numbersign" unicode="#" 
d="M562 485l-17 -94h-97l-18 -102h98l-17 -94h-98l-34 -195h-91l35 195h-107l-34 -195h-92l35 196h-100l16 93h102l18 102h-102l17 94h102l32 182h90l-32 -182h105l33 182h90l-32 -182h98zM339 289l17 102h-105l-18 -102h106z" />
    <glyph glyph-name="dollar" unicode="$" 
d="M322 5v-90h-66v90c-178 17 -216 126 -233 176l105 24c21 -78 70 -106 128 -111v193c-96 24 -208 51 -208 185c0 164 164 186 208 190v70h66v-70c88 -8 173 -68 191 -150l-98 -21c-21 61 -60 77 -93 81v-173l50 -13c104 -26 165 -75 165 -183c0 -90 -52 -137 -82 -157
c-50 -32 -92 -36 -133 -41zM256 408v164c-61 0 -100 -32 -100 -83c0 -65 65 -76 100 -81zM322 281v-187c71 3 108 45 108 96c0 70 -78 85 -108 91z" />
    <glyph glyph-name="percent" unicode="%" horiz-adv-x="771" 
d="M740 174c0 -117 -76 -180 -159 -180c-91 0 -153 78 -153 180c0 142 96 192 159 192c35 0 153 -22 153 -192zM650 176c0 40 -1 118 -63 118c-65 0 -69 -84 -69 -114c0 -75 20 -114 65 -114c67 0 67 101 67 110zM344 492c0 -132 -82 -191 -157 -191
c-106 0 -155 99 -155 190c0 93 53 182 156 182c151 0 156 -161 156 -181zM253 491c0 44 -9 111 -65 111c-65 0 -65 -85 -65 -111c0 -58 13 -118 63 -118c67 0 67 89 67 118zM630 667l-414 -667h-73l414 667h73z" />
    <glyph glyph-name="ampersand" unicode="&#x26;" horiz-adv-x="717" 
d="M597 404l100 -17c-21 -137 -88 -215 -119 -252c37 -38 51 -53 90 -53c8 0 14 0 29 3v-94c-100 -2 -122 -2 -196 70c-64 -46 -139 -71 -218 -71c-131 0 -251 78 -251 209c0 125 105 173 173 205c-33 41 -58 73 -58 127c0 89 74 146 174 146c95 0 177 -51 177 -144
c0 -22 -4 -61 -42 -103c-31 -35 -61 -48 -87 -60l144 -164c17 23 38 52 55 94c12 31 23 65 29 104zM437 134l-174 197c-34 -15 -59 -38 -67 -45c-30 -29 -32 -65 -32 -80c0 -82 69 -119 136 -119c11 0 73 0 137 47zM314 443c29 13 85 39 85 88c0 45 -40 61 -69 61
c-34 0 -71 -21 -71 -59c0 -41 38 -75 55 -90z" />
    <glyph glyph-name="quoteright" unicode="&#x2019;" horiz-adv-x="237" 
d="M174 667v-110l-75 -131h-36l54 131h-54v110h111z" />
    <glyph glyph-name="parenleft" unicode="(" horiz-adv-x="306" 
d="M272 -167h-66c-60 66 -107 142 -135 226c-20 60 -33 135 -33 200c0 213 121 365 168 408h66c-60 -88 -84 -124 -112 -215c-29 -95 -29 -160 -29 -195c0 -200 83 -347 141 -424z" />
    <glyph glyph-name="parenright" unicode=")" horiz-adv-x="306" 
d="M33 667h66c26 -28 96 -105 136 -225c20 -60 33 -135 33 -200c0 -82 -16 -163 -52 -237c-30 -62 -65 -124 -117 -172h-66c58 86 84 124 112 216c29 95 29 160 29 195c0 196 -80 342 -141 423z" />
    <glyph glyph-name="asterisk" unicode="*" horiz-adv-x="540" 
d="M247 488l-13 179h72l-13 -179l167 67l22 -68l-174 -44l115 -137l-58 -42l-95 152l-95 -152l-59 42l116 137l-174 44l22 68z" />
    <glyph glyph-name="plus" unicode="+" 
d="M541 383v-93h-201v-207h-93v207h-200v93h200v208h93v-208h201z" />
    <glyph glyph-name="comma" unicode="," horiz-adv-x="247" 
d="M184 125v-112l-78 -156h-43l58 143h-58v125h121z" />
    <glyph glyph-name="hyphen" unicode="-" horiz-adv-x="245" 
d="M245 300v-91h-245v91h245z" />
    <glyph glyph-name="period" unicode="." horiz-adv-x="247" 
d="M184 128v-128h-121v128h121z" />
    <glyph glyph-name="slash" unicode="/" horiz-adv-x="479" 
d="M449 667l-436 -833h-69l434 833h71z" />
    <glyph glyph-name="zero" unicode="0" 
d="M551 356c0 -117 -14 -183 -55 -249c-46 -75 -108 -117 -204 -117c-190 0 -256 178 -256 337c0 90 17 181 70 253c47 63 102 97 187 97c253 0 258 -308 258 -321zM428 358c0 15 -2 110 -36 174c-29 55 -77 56 -97 56c-50 0 -81 -24 -99 -56c-32 -57 -37 -140 -37 -195
c0 -157 35 -253 133 -253c136 0 136 170 136 274z" />
    <glyph glyph-name="one" unicode="1" 
d="M380 680v-582h188v-98h-510v98h201v421c-98 -84 -146 -105 -182 -120v120c88 34 108 42 169 98c35 32 44 46 54 63h80z" />
    <glyph glyph-name="two" unicode="2" 
d="M528 104v-104h-492v117c65 43 129 85 193 127c86 56 172 128 172 211c0 59 -41 117 -119 117c-50 0 -85 -27 -102 -53c-21 -32 -25 -61 -28 -87l-116 29c7 35 20 111 104 173c32 23 76 43 148 43c152 0 242 -97 242 -224c0 -54 -13 -100 -69 -161
c-48 -51 -100 -82 -280 -188h347z" />
    <glyph glyph-name="three" unicode="3" 
d="M210 294v95h61c23 0 128 5 128 97c0 88 -83 96 -111 96c-79 0 -113 -43 -134 -97l-110 19c26 103 120 173 248 173c107 0 227 -56 227 -179c0 -72 -43 -142 -124 -151c128 -23 145 -119 145 -161c0 -111 -96 -196 -253 -196c-154 0 -238 92 -262 177l113 28
c9 -27 35 -111 148 -111c87 0 130 53 130 102c0 18 -8 108 -124 108h-82z" />
    <glyph glyph-name="four" unicode="4" 
d="M453 0h-123v151h-296v88l296 441h123v-426h100v-103h-100v-151zM330 254v184c0 14 1 33 3 53c2 15 4 48 6 64l-189 -301h180z" />
    <glyph glyph-name="five" unicode="5" 
d="M58 298l38 369h415l-11 -103h-316l-18 -194c23 28 64 77 155 77c134 0 230 -105 230 -225c0 -100 -72 -232 -260 -232c-48 0 -145 10 -209 78c-36 38 -45 74 -53 104l116 17c7 -21 33 -102 140 -102c103 0 136 78 136 136c0 70 -48 132 -126 132c-32 0 -64 -10 -88 -28
c-23 -17 -32 -34 -41 -50z" />
    <glyph glyph-name="six" unicode="6" 
d="M531 515l-102 -20c-9 28 -31 94 -117 94c-57 0 -107 -22 -136 -118c-18 -60 -17 -103 -16 -143c16 29 54 100 173 100c121 0 220 -85 220 -211c0 -121 -91 -227 -241 -227c-167 0 -273 128 -273 336c0 194 90 351 268 351c64 0 135 -22 178 -70c30 -33 40 -71 46 -92z
M438 210c0 37 -29 125 -132 125c-81 0 -126 -64 -126 -130c0 -69 45 -127 130 -127c52 0 128 26 128 132z" />
    <glyph glyph-name="seven" unicode="7" 
d="M61 667h473v-85c-149 -201 -196 -291 -212 -582h-137c11 148 38 246 93 351c39 75 95 152 154 213h-381z" />
    <glyph glyph-name="eight" unicode="8" 
d="M169 329c-41 21 -117 60 -117 160c0 101 80 188 244 188c148 0 236 -71 236 -173c0 -91 -71 -124 -118 -145c56 -26 144 -68 144 -175c0 -100 -86 -194 -271 -194c-164 0 -259 73 -259 179s96 143 141 160zM252 290c-84 -32 -109 -80 -109 -115c0 -44 44 -98 151 -98
c98 0 141 44 141 89c0 58 -56 83 -183 124zM331 394c35 16 92 42 92 107c0 72 -79 93 -126 93c-32 0 -124 -11 -124 -86c0 -56 49 -79 158 -114z" />
    <glyph glyph-name="nine" unicode="9" 
d="M59 121l100 29c18 -28 44 -70 113 -70c118 0 157 130 158 265c-26 -45 -61 -106 -175 -106c-111 0 -220 73 -220 214c0 119 85 224 239 224c136 0 272 -86 272 -325c0 -188 -82 -362 -277 -362c-120 0 -186 64 -210 131zM409 469c0 46 -39 117 -130 117
c-79 0 -129 -57 -129 -126c0 -62 46 -124 127 -124c50 0 132 30 132 133z" />
    <glyph glyph-name="colon" unicode=":" horiz-adv-x="247" 
d="M184 122v-122h-121v122h121zM184 461v-122h-121v122h121z" />
    <glyph glyph-name="semicolon" unicode=";" horiz-adv-x="247" 
d="M184 125v-112l-78 -156h-43l58 143h-58v125h121zM184 461v-122h-121v122h121z" />
    <glyph glyph-name="less" unicode="&#x3c;" 
d="M511 596v-112l-314 -151l314 -152v-112l-434 216v96z" />
    <glyph glyph-name="equal" unicode="=" 
d="M540 451v-93h-493v93h493zM540 305v-93h-493v93h493z" />
    <glyph glyph-name="greater" unicode="&#x3e;" 
d="M77 69v113l314 151l-314 152v111l434 -216v-95z" />
    <glyph glyph-name="question" unicode="?" horiz-adv-x="502" 
d="M313 122v-122h-115v122h115zM293 191h-95v67c0 50 23 68 72 106c38 29 69 62 69 112c0 65 -45 98 -97 98c-96 0 -110 -86 -119 -139l-106 19c17 166 140 223 237 223c124 0 216 -82 216 -194c0 -99 -65 -146 -123 -189c-43 -32 -47 -34 -51 -56c-2 -15 -3 -28 -3 -47z
" />
    <glyph glyph-name="at" unicode="@" horiz-adv-x="717" 
d="M537 508l-28 -227c-3 -20 -3 -37 -3 -47c0 -18 5 -32 24 -32c48 0 106 77 106 175c0 160 -136 240 -261 240c-164 0 -283 -128 -283 -283c0 -124 81 -279 291 -279c101 0 158 28 219 57l30 -66c-44 -21 -124 -61 -248 -61c-257 0 -372 187 -372 348
c0 204 166 349 362 349c180 0 331 -123 331 -302c0 -115 -72 -246 -185 -246c-19 0 -63 7 -83 51c-12 -15 -43 -53 -102 -53c-86 0 -150 80 -150 188c0 125 84 196 168 196c32 0 75 -12 96 -42l4 34h84zM443 348c0 43 -34 88 -83 88c-51 0 -88 -49 -88 -120
c0 -57 26 -104 70 -104c42 0 101 43 101 136z" />
    <glyph glyph-name="A" unicode="A" horiz-adv-x="603" 
d="M372 667l224 -667h-128l-54 159h-256l-52 -159h-103l222 667h147zM188 255h194l-97 298z" />
    <glyph glyph-name="B" unicode="B" horiz-adv-x="607" 
d="M73 0v667h260c52 0 129 0 180 -64c30 -37 37 -78 37 -109c0 -20 -1 -121 -121 -149c27 -6 69 -14 104 -54c31 -37 38 -79 38 -109c0 -48 -19 -103 -54 -133c-51 -43 -101 -49 -152 -49h-292zM187 291v-191h156c62 0 106 34 106 96c0 54 -40 95 -106 95h-156zM187 572
v-186h147c58 0 97 38 97 97c0 78 -73 89 -100 89h-144z" />
    <glyph glyph-name="C" unicode="C" horiz-adv-x="579" 
d="M446 232l112 -13c-26 -176 -147 -229 -253 -229c-224 0 -267 229 -267 344c0 173 80 343 271 343c142 0 225 -90 249 -236l-112 -12c-12 53 -35 151 -136 151c-134 0 -142 -183 -142 -243c0 -191 76 -246 146 -246c63 0 122 50 132 141z" />
    <glyph glyph-name="D" unicode="D" horiz-adv-x="655" 
d="M70 0v667h246c38 0 125 -1 206 -83c65 -66 95 -157 95 -250c0 -141 -65 -225 -111 -266c-28 -25 -103 -68 -217 -68h-219zM193 572v-474h101c104 0 193 80 193 241c0 122 -65 233 -179 233h-115z" />
    <glyph glyph-name="E" unicode="E" horiz-adv-x="537" 
d="M506 0h-433v667h429v-99h-309v-181h248v-97h-248v-187h313v-103z" />
    <glyph glyph-name="F" unicode="F" horiz-adv-x="508" 
d="M196 0h-123v667h421v-103h-298v-183h235v-100h-235v-281z" />
    <glyph glyph-name="G" unicode="G" horiz-adv-x="642" 
d="M579 341v-341h-53l-37 90c-50 -80 -113 -100 -180 -100c-245 0 -271 267 -271 344c0 144 70 343 285 343c61 0 132 -15 191 -85c40 -46 49 -88 57 -119l-105 -18c-7 28 -30 122 -140 122c-57 0 -95 -29 -114 -55c-22 -30 -47 -74 -47 -180c0 -120 27 -253 159 -253
c77 0 143 57 142 155h-138v97h251z" />
    <glyph glyph-name="H" unicode="H" horiz-adv-x="641" 
d="M568 667v-667h-120v289h-255v-289h-120v667h120v-275h255v275h120z" />
    <glyph glyph-name="I" unicode="I" horiz-adv-x="267" 
d="M193 0h-120v667h120v-667z" />
    <glyph glyph-name="J" unicode="J" horiz-adv-x="371" 
d="M304 667v-460c0 -4 0 -95 -29 -139c-49 -78 -139 -78 -178 -78c-60 0 -81 6 -97 10v97c38 -3 57 -4 77 -4c104 0 104 55 104 114v460h123z" />
    <glyph glyph-name="K" unicode="K" horiz-adv-x="614" 
d="M597 0h-134l-141 340l-129 -171v-169h-120v667h120v-351c18 28 25 39 33 50l222 301h121l-158 -219z" />
    <glyph glyph-name="L" unicode="L" horiz-adv-x="498" 
d="M483 0h-410v667h127v-558h283v-109z" />
    <glyph glyph-name="M" unicode="M" horiz-adv-x="801" 
d="M727 0h-123v584l-185 -584h-63l-185 584v-584h-98v667h188l139 -430l138 430h189v-667z" />
    <glyph glyph-name="N" unicode="N" horiz-adv-x="650" 
d="M577 667v-667h-110l-261 426c-7 11 -31 62 -37 74v-500h-96v667h133l234 -393c2 -5 18 -34 41 -78v471h96z" />
    <glyph glyph-name="O" unicode="O" horiz-adv-x="643" 
d="M605 334c0 -204 -111 -344 -286 -344c-210 0 -281 195 -281 346c0 180 102 341 286 341c188 0 281 -164 281 -343zM475 335c0 27 -2 109 -33 172c-34 69 -93 73 -120 73c-126 0 -154 -129 -154 -248c0 -79 13 -245 152 -245c60 0 105 37 125 77c16 32 30 76 30 171z" />
    <glyph glyph-name="P" unicode="P" horiz-adv-x="599" 
d="M193 0h-120v667h273c57 0 96 -6 140 -33c64 -40 90 -103 90 -165c0 -131 -102 -205 -216 -205h-167v-264zM193 567v-200h143c87 0 114 53 114 99c0 27 -10 48 -18 60c-18 29 -53 41 -107 41h-132z" />
    <glyph glyph-name="Q" unicode="Q" horiz-adv-x="643" 
d="M578 -35v-102c-22 -2 -54 -4 -68 -4c-143 0 -147 84 -149 130c-8 0 -31 -2 -47 -2c-200 0 -276 183 -276 342c0 178 85 348 284 348c49 0 175 -2 249 -168c17 -37 34 -90 34 -175c0 -116 -33 -211 -110 -282c-7 -7 -43 -30 -49 -36c-3 -3 -5 -7 -5 -13
c0 -20 19 -42 55 -42c16 0 52 1 82 4zM475 334c0 99 -21 246 -152 246c-123 0 -155 -124 -155 -252c0 -138 37 -240 150 -240c130 0 157 132 157 246z" />
    <glyph glyph-name="R" unicode="R" horiz-adv-x="643" 
d="M593 0h-127l-104 274h-169v-274h-120v667h289c83 0 133 -16 174 -52c34 -31 60 -76 60 -144c0 -125 -86 -162 -120 -177zM193 571v-201h150c59 0 128 20 128 103c0 50 -33 98 -118 98h-160z" />
    <glyph glyph-name="S" unicode="S" horiz-adv-x="571" 
d="M4 161l116 25c6 -24 18 -67 78 -86c33 -11 61 -13 83 -13c111 0 133 58 133 88c0 63 -52 79 -82 87l-149 38c-97 25 -144 93 -144 178c0 126 102 199 236 199c66 0 131 -17 183 -58c40 -32 50 -64 56 -86l-114 -29c-8 23 -28 76 -123 76c-92 0 -115 -49 -115 -83
c0 -52 59 -71 93 -80l113 -28c57 -15 173 -47 173 -190c0 -132 -113 -209 -265 -209c-80 0 -150 19 -205 63c-45 36 -57 77 -67 108z" />
    <glyph glyph-name="T" unicode="T" horiz-adv-x="483" 
d="M306 0h-129v564h-177v103h483v-103h-177v-564z" />
    <glyph glyph-name="U" unicode="U" horiz-adv-x="595" 
d="M530 667v-429c0 -73 0 -156 -94 -214c-53 -32 -117 -34 -138 -34c-40 0 -131 8 -179 64c-50 60 -53 116 -53 175v438h123v-429c0 -39 5 -83 29 -108c22 -23 60 -35 94 -35c38 0 81 15 99 41c20 28 23 70 23 102v429h96z" />
    <glyph glyph-name="V" unicode="V" horiz-adv-x="540" 
d="M330 0h-122l-206 667h127l153 -511l156 511h100z" />
    <glyph glyph-name="W" unicode="W" horiz-adv-x="883" 
d="M873 667l-178 -667h-126l-133 490l-120 -490h-124l-182 667h128l129 -487l120 487h121l133 -487l126 487h106z" />
    <glyph glyph-name="X" unicode="X" horiz-adv-x="567" 
d="M561 0h-140l-147 263l-157 -263h-112l212 348l-182 319h140l123 -222l130 222h113l-186 -304z" />
    <glyph glyph-name="Y" unicode="Y" horiz-adv-x="544" 
d="M341 0h-127v281l-227 386h145l158 -275l151 275h116l-216 -386v-281z" />
    <glyph glyph-name="Z" unicode="Z" horiz-adv-x="533" 
d="M513 103v-103h-493v94l342 478h-318v95h459v-95l-338 -469h348z" />
    <glyph glyph-name="bracketleft" unicode="[" horiz-adv-x="306" 
d="M241 587h-81v-674h81v-80h-168v834h168v-80z" />
    <glyph glyph-name="backslash" unicode="\" horiz-adv-x="479" 
d="M91 667l435 -833h-70l-436 833h71z" />
    <glyph glyph-name="bracketright" unicode="]" horiz-adv-x="306" 
d="M65 -87h81v674h-81v80h168v-834h-168v80z" />
    <glyph glyph-name="asciicircum" unicode="^" 
d="M534 309h-96l-145 278l-144 -278h-96l189 358h103z" />
    <glyph glyph-name="underscore" unicode="_" horiz-adv-x="500" 
d="M500 -75v-50h-500v50h500z" />
    <glyph glyph-name="quoteleft" unicode="&#x2018;" horiz-adv-x="237" 
d="M63 426v110l75 131h36l-54 -131h54v-110h-111z" />
    <glyph glyph-name="a" unicode="a" horiz-adv-x="540" 
d="M474 322v-222c0 -47 10 -83 15 -100h-106c-13 40 -15 60 -18 100c-15 -35 -49 -110 -167 -110c-106 0 -163 71 -163 152c0 166 224 171 330 169v37c0 63 -55 76 -105 76c-98 0 -110 -54 -115 -76l-95 14c19 111 123 141 223 141c54 0 116 -7 150 -36
c51 -44 51 -83 51 -145zM365 206v45c-70 0 -113 -10 -135 -16c-22 -7 -81 -24 -81 -87c0 -18 8 -74 87 -74c109 0 129 93 129 132z" />
    <glyph glyph-name="b" unicode="b" horiz-adv-x="538" 
d="M117 0h-50v667h111v-241c26 44 55 90 137 90c93 0 188 -77 188 -260c0 -70 -16 -139 -57 -194c-39 -51 -83 -72 -146 -72c-91 0 -126 49 -153 90zM178 284v-74c0 -94 46 -129 102 -129c102 0 105 124 106 178c-2 51 -8 161 -103 161c-48 0 -105 -35 -105 -136z" />
    <glyph glyph-name="c" unicode="c" horiz-adv-x="466" 
d="M351 181l96 -10c-10 -45 -42 -181 -202 -181c-157 0 -210 145 -210 257c0 135 75 256 220 256c161 0 185 -131 192 -170l-96 -13c-9 65 -44 92 -91 92c-63 0 -84 -50 -93 -77c-11 -33 -14 -70 -14 -93c0 -20 0 -155 101 -155c53 0 83 38 97 94z" />
    <glyph glyph-name="d" unicode="d" horiz-adv-x="538" 
d="M471 0h-104v99c-14 -33 -46 -109 -145 -109c-172 0 -187 210 -187 263c0 96 42 260 193 260c49 0 100 -16 132 -87v241h111v-667zM360 207v84c0 43 -6 62 -26 90c-17 24 -49 37 -76 37c-100 0 -105 -130 -105 -172c0 -34 2 -165 102 -165c51 0 105 47 105 126z" />
    <glyph glyph-name="e" unicode="e" horiz-adv-x="524" 
d="M380 157l100 -14c-35 -109 -121 -153 -218 -153c-163 0 -227 131 -227 255c0 145 87 258 232 258c160 0 225 -127 222 -270h-338c-1 -33 -2 -72 26 -111c21 -31 52 -45 92 -45c79 0 100 53 111 80zM151 305h222c-1 25 -3 48 -24 77c-20 26 -48 43 -86 43s-68 -16 -89 -48
c-17 -25 -20 -46 -23 -72z" />
    <glyph glyph-name="f" unicode="f" horiz-adv-x="316" 
d="M191 0h-107v406h-73v87h73c0 55 -1 122 60 162c26 17 67 26 156 22v-87c-13 1 -20 1 -29 1c-80 0 -80 -28 -80 -98h109v-87h-109v-406z" />
    <glyph glyph-name="g" unicode="g" horiz-adv-x="518" 
d="M517 587v-85h-34c-37 0 -56 -11 -72 -40c26 -22 58 -53 58 -106c0 -89 -81 -152 -200 -152c-35 0 -59 5 -92 13c-15 -8 -34 -18 -34 -48c0 -18 16 -49 79 -49h126c121 0 169 -70 169 -135c0 -63 -47 -162 -256 -162c-130 0 -239 30 -239 134c0 60 36 81 72 100
c-28 25 -46 45 -46 81c0 63 52 89 79 103c-27 17 -69 46 -69 113c0 51 30 149 203 149c44 0 68 -5 96 -10c7 35 23 59 45 73c22 15 50 21 81 21h34zM355 355c0 30 -18 78 -89 78c-72 0 -93 -48 -93 -82c0 -43 29 -81 91 -81c23 0 47 7 62 17c28 20 29 42 29 68zM118 -16
c0 -31 32 -64 74 -74c34 -9 67 -11 93 -11c49 0 128 8 128 66c0 35 -38 50 -73 50h-78c-37 0 -88 1 -120 12c-17 -16 -24 -28 -24 -43z" />
    <glyph glyph-name="h" unicode="h" horiz-adv-x="542" 
d="M67 0v667h111v-261c12 29 44 107 145 107c106 0 152 -58 152 -195v-318h-111v300c0 42 0 117 -74 117c-39 0 -77 -24 -91 -54c-16 -36 -21 -69 -21 -127v-236h-111z" />
    <glyph glyph-name="i" unicode="i" horiz-adv-x="245" 
d="M178 0h-111v494h111v-494zM178 551h-111v116h111v-116z" />
    <glyph glyph-name="j" unicode="j" horiz-adv-x="245" 
d="M178 494v-507c0 -71 -17 -113 -47 -142c-30 -30 -73 -43 -122 -43c-24 0 -40 3 -57 6v94c14 -1 23 -2 35 -2c74 0 80 30 80 87v507h111zM178 551h-111v116h111v-116z" />
    <glyph glyph-name="k" unicode="k" horiz-adv-x="532" 
d="M509 493l-148 -163l164 -330h-117l-126 253l-109 -123v-130h-107v667h107v-414c14 18 15 20 22 28l194 212h120z" />
    <glyph glyph-name="l" unicode="l" horiz-adv-x="245" 
d="M178 0h-111v667h111v-667z" />
    <glyph glyph-name="m" unicode="m" horiz-adv-x="870" 
d="M66 0v493h109v-105c22 42 58 115 164 115c107 0 132 -84 142 -115c28 53 77 115 164 115c108 0 158 -76 158 -183v-320h-117v290c0 62 -11 112 -84 112c-55 0 -109 -36 -109 -144v-258h-117v307c0 38 -11 97 -80 97c-55 0 -113 -41 -113 -164v-240h-117z" />
    <glyph glyph-name="n" unicode="n" horiz-adv-x="541" 
d="M67 0v493h101v-114c19 41 57 124 149 124c160 0 157 -146 157 -211v-292h-111v290c0 114 -57 116 -76 116c-24 0 -109 -6 -109 -175v-231h-111z" />
    <glyph glyph-name="o" unicode="o" horiz-adv-x="529" 
d="M494 248c0 -167 -108 -258 -234 -258c-165 0 -225 146 -225 259c0 134 82 254 232 254c149 0 227 -121 227 -255zM376 249c0 85 -26 163 -110 163c-90 0 -113 -88 -113 -165c0 -25 0 -166 111 -166c103 0 112 117 112 168z" />
    <glyph glyph-name="p" unicode="p" horiz-adv-x="538" 
d="M180 -167h-113v660h106v-86c18 31 55 96 151 96c141 0 179 -157 179 -253c0 -71 -15 -142 -58 -199c-27 -36 -65 -61 -129 -61c-87 0 -121 53 -136 79v-236zM180 273v-71c0 -77 52 -124 103 -124c93 0 102 114 102 165c0 54 -12 169 -99 169c-53 0 -106 -49 -106 -139z
" />
    <glyph glyph-name="q" unicode="q" horiz-adv-x="542" 
d="M475 493v-660h-116v254c-29 -71 -78 -97 -137 -97c-159 0 -187 177 -187 255c0 126 58 258 206 258c86 0 122 -48 145 -79l30 69h59zM359 219v71c0 40 -12 122 -95 122s-111 -81 -111 -166c0 -116 50 -167 104 -167c45 0 102 38 102 140z" />
    <glyph glyph-name="r" unicode="r" horiz-adv-x="331" 
d="M67 0v493h100v-118c12 36 46 137 151 132v-120c-26 0 -67 1 -103 -40c-19 -22 -37 -71 -37 -147v-200h-111z" />
    <glyph glyph-name="s" unicode="s" horiz-adv-x="454" 
d="M6 113l105 20c10 -23 27 -60 105 -60c24 0 104 2 104 61c0 31 -34 45 -54 49l-90 18c-47 8 -150 31 -150 145c0 53 29 157 189 157c58 0 160 -12 191 -114l-99 -20c-5 16 -18 55 -89 55c-61 0 -89 -23 -89 -56c0 -30 32 -45 72 -53l106 -22c80 -16 124 -65 124 -142
c0 -137 -147 -161 -215 -161c-117 0 -190 50 -210 123z" />
    <glyph glyph-name="t" unicode="t" horiz-adv-x="322" 
d="M296 87v-87c-25 -6 -57 -10 -78 -10c-37 0 -83 13 -105 39c-30 34 -34 66 -34 122v255h-61v87h68l10 128l91 8v-136h99v-87h-99v-240c0 -68 24 -80 81 -80c9 0 16 0 28 1z" />
    <glyph glyph-name="u" unicode="u" horiz-adv-x="539" 
d="M472 493v-493h-104v106c-9 -26 -19 -53 -52 -80c-17 -14 -50 -36 -103 -36c-45 0 -93 16 -121 60c-20 32 -25 53 -25 98v345h114v-313c0 -53 17 -95 69 -95c36 0 81 27 97 69c11 29 14 55 14 102v237h111z" />
    <glyph glyph-name="v" unicode="v" horiz-adv-x="444" 
d="M438 493l-168 -493h-92l-171 493h116l115 -334l112 334h88z" />
    <glyph glyph-name="w" unicode="w" horiz-adv-x="697" 
d="M687 493l-145 -493h-100l-89 345l-88 -345h-103l-152 493h118l98 -332l84 332h101l87 -332l95 332h94z" />
    <glyph glyph-name="x" unicode="x" horiz-adv-x="442" 
d="M442 0h-128l-104 180l-114 -180h-96l164 254l-142 239h128l81 -145l92 145h93l-139 -214z" />
    <glyph glyph-name="y" unicode="y" horiz-adv-x="442" 
d="M435 493l-192 -562c-33 -97 -89 -109 -134 -109c-7 0 -29 1 -64 4v88c63 -2 89 -3 110 14c15 13 31 60 31 71c0 3 -8 26 -10 31l-169 463h116l120 -326l103 326h89z" />
    <glyph glyph-name="z" unicode="z" horiz-adv-x="419" 
d="M395 87v-87h-372v87l243 319h-220v87h349v-79l-240 -327h240z" />
    <glyph glyph-name="braceleft" unicode="{" horiz-adv-x="326" 
d="M182 134v-145c0 -65 12 -81 97 -81v-75c-106 0 -187 0 -187 140v157c0 42 -7 76 -56 87v71c39 9 56 32 56 82v164c0 133 83 133 187 133v-75c-87 0 -97 -19 -97 -78v-150c0 -81 -31 -98 -61 -114c33 -19 61 -41 61 -116z" />
    <glyph glyph-name="bar" unicode="|" horiz-adv-x="500" 
d="M193 750h113v-1000h-113v1000z" />
    <glyph glyph-name="braceright" unicode="}" horiz-adv-x="326" 
d="M144 366v146c0 64 -12 80 -97 80v75c104 0 187 0 187 -140v-157c0 -42 7 -76 56 -87v-71c-39 -9 -56 -32 -56 -82v-164c0 -133 -87 -133 -187 -133v75c87 0 97 19 97 78v150c0 81 31 98 61 114c-33 19 -61 41 -61 116z" />
    <glyph glyph-name="asciitilde" unicode="~" 
d="M114 247l-63 41c32 69 61 132 147 132c13 0 34 0 106 -28c52 -20 66 -26 90 -26c44 0 61 29 77 56l65 -38c-24 -49 -61 -127 -156 -127c-28 0 -84 21 -96 26c-66 25 -73 28 -94 28c-43 0 -61 -36 -76 -64z" />
    <glyph glyph-name="exclamdown" unicode="&#xa1;" horiz-adv-x="275" 
d="M77 378v122h122v-122h-122zM62 -167l49 465h51l47 -465h-147z" />
    <glyph glyph-name="cent" unicode="&#xa2;" 
d="M274 708h62v-126c57 -9 143 -30 172 -164l-91 -17c-25 78 -51 86 -81 93v-302c32 4 58 16 81 90l91 -13c-26 -126 -101 -153 -172 -166v-136h-62v136c-39 8 -97 18 -147 89c-30 44 -42 96 -42 149c0 54 13 130 73 187c44 43 86 49 116 54v126zM274 192v302
c-24 -6 -73 -17 -73 -155c0 -9 0 -56 13 -88c18 -46 40 -53 60 -59z" />
    <glyph glyph-name="sterling" unicode="&#xa3;" 
d="M-12 0v111c54 1 87 3 117 28c8 6 46 38 46 96c0 16 -2 32 -6 69h-77v87h67c-4 27 -8 55 -8 83c0 116 80 203 201 203c127 0 171 -82 192 -122l-94 -44c-7 19 -26 75 -93 75c-51 0 -85 -32 -85 -103c0 -29 5 -52 15 -92h121v-87h-121c2 -109 -17 -140 -74 -193h127
c107 0 156 15 167 94l106 -53c-58 -152 -165 -152 -229 -152h-372z" />
    <glyph glyph-name="fraction" unicode="&#x2044;" horiz-adv-x="144" 
d="M-169 0l411 667h72l-412 -667h-71z" />
    <glyph glyph-name="yen" unicode="&#xa5;" 
d="M52 423h109l-132 244h138l144 -276l137 276h109l-125 -244h102v-60h-133l-42 -82v-16h175v-60h-175v-205h-121v205h-186v60h186v16l-45 82h-141v60z" />
    <glyph glyph-name="florin" unicode="&#x192;" 
d="M472 465h-103l-66 -365c-16 -91 -27 -149 -81 -195c-32 -27 -64 -39 -133 -39c-27 0 -34 2 -48 5l17 89c101 -1 111 7 130 109l72 396h-72l14 89h74c5 35 13 92 46 133c42 53 125 59 152 59c19 0 39 -3 58 -5l-17 -93c-107 8 -120 -20 -131 -94h105z" />
    <glyph glyph-name="section" unicode="&#xa7;" 
d="M61 -31l106 20c12 -23 44 -81 137 -81c66 0 106 34 106 71c0 56 -55 76 -94 90l-106 39c-49 19 -79 34 -102 80c-12 25 -17 50 -17 72c0 82 52 115 76 130c-25 20 -61 49 -61 114c0 44 20 104 78 139c52 30 116 30 131 30c86 0 163 -34 202 -122l-91 -25
c-6 17 -28 74 -120 74c-23 0 -97 -4 -97 -66c0 -44 57 -64 78 -71l88 -30c46 -16 141 -51 141 -160c0 -63 -35 -100 -64 -131c26 -17 75 -49 75 -134c0 -92 -62 -181 -229 -181s-210 86 -237 142zM292 205l91 -33c14 14 36 37 36 68c0 44 -43 70 -86 84l-106 37
c-12 -11 -35 -31 -35 -63c0 -56 73 -84 100 -93z" />
    <glyph glyph-name="currency" unicode="&#xa4;" 
d="M36 169l85 85c-10 14 -39 55 -39 119c0 60 26 98 39 117l-86 86l52 53l86 -86c24 15 59 39 121 39c61 0 99 -25 118 -38l85 85l53 -53l-85 -85c14 -21 40 -60 40 -119s-24 -95 -38 -117l85 -86l-52 -53l-85 86c-53 -36 -99 -40 -121 -40c-59 0 -96 24 -121 39l-86 -84z
M293 496c-68 0 -123 -56 -123 -124c0 -69 55 -124 123 -124s124 55 124 124c0 67 -53 124 -124 124z" />
    <glyph glyph-name="quotesingle" unicode="'" horiz-adv-x="237" 
d="M157 399h-77l-16 268h109z" />
    <glyph glyph-name="quotedblleft" unicode="&#x201c;" horiz-adv-x="375" 
d="M63 425v110l73 132h42l-56 -132h47v-110h-106zM204 425v110l73 132h35l-52 -132h52v-110h-108z" />
    <glyph glyph-name="guillemotleft" unicode="&#xab;" horiz-adv-x="329" 
d="M286 390l-45 -141l45 -141h-45l-80 141l80 141h45zM161 390l-48 -141l48 -141h-48l-76 141l76 141h48z" />
    <glyph glyph-name="guilsinglleft" unicode="&#x2039;" horiz-adv-x="204" 
d="M161 399l-46 -143l46 -137h-46l-78 137l78 143h46z" />
    <glyph glyph-name="guilsinglright" unicode="&#x203a;" horiz-adv-x="204" 
d="M43 399h46l78 -143l-78 -137h-46l46 137z" />
    <glyph glyph-name="endash" unicode="&#x2013;" horiz-adv-x="500" 
d="M453 300v-91h-405v91h405z" />
    <glyph glyph-name="dagger" unicode="&#x2020;" 
d="M61 391v92h179v184h106v-184h179v-92h-179v-558h-106v558h-179z" />
    <glyph glyph-name="daggerdbl" unicode="&#x2021;" 
d="M61 391v92h179v184h106v-184h179v-92h-179v-272h179v-92h-179v-193h-106v193h-179v92h179v272h-179z" />
    <glyph glyph-name="periodcentered" unicode="&#xb7;" horiz-adv-x="247" 
d="M184 318v-128h-121v128h121z" />
    <glyph glyph-name="paragraph" unicode="&#xb6;" 
d="M564 667v-56l-73 1v-775l-56 -1v775h-55v-775h-57v507h-64c-85 0 -130 3 -174 35c-42 31 -51 84 -51 123c0 75 53 124 62 132c30 24 64 34 166 34h302zM260 399h63v212h-52c-37 0 -84 0 -108 -21c-25 -22 -31 -74 -31 -92s6 -66 45 -86c22 -12 49 -13 83 -13z" />
    <glyph glyph-name="bullet" unicode="&#x2022;" 
d="M184 334c0 60 47 111 110 111s110 -51 110 -111c0 -61 -48 -112 -110 -112s-110 51 -110 112z" />
    <glyph glyph-name="quotesinglbase" unicode="&#x201a;" horiz-adv-x="237" 
d="M174 110v-110l-75 -131h-36l54 131h-54v110h111z" />
    <glyph glyph-name="quotedblbase" unicode="&#x201e;" horiz-adv-x="375" 
d="M312 111v-111l-73 -131h-41l56 131h-47v111h105zM171 111v-111l-73 -131h-35l52 131h-52v111h108z" />
    <glyph glyph-name="quotedblright" unicode="&#x201d;" horiz-adv-x="375" 
d="M312 667v-111l-73 -131h-41l56 131h-47v111h105zM171 667v-111l-73 -131h-35l52 131h-52v111h108z" />
    <glyph glyph-name="guillemotright" unicode="&#xbb;" horiz-adv-x="329" 
d="M43 389h46l78 -143l-78 -137h-46l46 137zM167 389h46l79 -143l-79 -137h-46l46 137z" />
    <glyph glyph-name="ellipsis" unicode="&#x2026;" horiz-adv-x="1000" 
d="M227 128v-128h-121v128h121zM561 128v-128h-121v128h121zM895 128v-128h-121v128h121z" />
    <glyph glyph-name="perthousand" unicode="&#x2030;" horiz-adv-x="1125" 
d="M740 174c0 -117 -76 -180 -159 -180c-91 0 -153 78 -153 180c0 142 96 192 159 192c35 0 153 -22 153 -192zM650 176c0 40 -1 118 -63 118c-65 0 -69 -84 -69 -114c0 -75 20 -114 65 -114c67 0 67 101 67 110zM344 492c0 -132 -82 -191 -157 -191
c-106 0 -155 99 -155 190c0 93 53 182 156 182c151 0 156 -161 156 -181zM253 491c0 44 -9 111 -65 111c-65 0 -65 -85 -65 -111c0 -58 13 -118 63 -118c67 0 67 89 67 118zM1093 174c0 -117 -76 -180 -159 -180c-90 0 -152 78 -152 180c0 142 96 192 158 192
c36 0 153 -22 153 -192zM1004 176c0 40 -1 118 -63 118c-65 0 -69 -85 -69 -114c0 -74 20 -114 65 -114c67 0 67 101 67 110zM629 667l-413 -667h-73l413 667h73z" />
    <glyph glyph-name="questiondown" unicode="&#xbf;" horiz-adv-x="502" 
d="M189 379v121h115v-121h-115zM209 309h95v-66c0 -51 -23 -69 -72 -106c-37 -29 -70 -62 -70 -114c0 -64 45 -97 98 -97c96 0 110 86 119 139l106 -19c-17 -167 -141 -223 -237 -223c-125 0 -217 83 -217 194c0 98 64 145 124 189c39 29 43 32 48 44c5 15 5 38 6 59z" />
    <glyph glyph-name="grave" unicode="`" horiz-adv-x="500" 
d="M137 726l192 -107l-21 -52l-203 86z" />
    <glyph glyph-name="acute" unicode="&#xb4;" horiz-adv-x="500" 
d="M360 726l33 -73l-204 -86l-20 52z" />
    <glyph glyph-name="circumflex" unicode="&#x2c6;" horiz-adv-x="500" 
d="M250 721l170 -141l-88 -10l-82 64l-82 -64l-88 10z" />
    <glyph glyph-name="tilde" unicode="&#x2dc;" horiz-adv-x="500" 
d="M375 693l34 -50c-24 -43 -77 -57 -100 -57c-26 0 -46 10 -88 31c-10 5 -20 10 -35 10c-10 0 -23 0 -61 -38l-34 50c15 18 47 56 98 56c18 0 33 -4 66 -19c34 -16 48 -21 66 -21c28 0 42 20 54 38z" />
    <glyph glyph-name="macron" unicode="&#xaf;" horiz-adv-x="500" 
d="M397 660v-63h-294v63h294z" />
    <glyph glyph-name="breve" unicode="&#x2d8;" horiz-adv-x="500" 
d="M102 711h64c4 -22 12 -65 85 -65c71 0 79 43 83 65h64c-5 -83 -67 -134 -148 -134c-67 0 -143 34 -148 134z" />
    <glyph glyph-name="dotaccent" unicode="&#x2d9;" horiz-adv-x="500" 
d="M305 633c0 -36 -29 -53 -56 -53c-34 0 -54 27 -54 53c0 25 19 54 54 54c25 0 56 -16 56 -54z" />
    <glyph glyph-name="dieresis" unicode="&#xa8;" horiz-adv-x="500" 
d="M223 633c0 -36 -29 -53 -56 -53c-34 0 -54 27 -54 53c0 25 19 54 54 54c25 0 56 -16 56 -54zM387 633c0 -36 -29 -53 -56 -53c-34 0 -54 27 -54 53c0 25 19 54 54 54c25 0 56 -16 56 -54z" />
    <glyph glyph-name="ring" unicode="&#x2da;" horiz-adv-x="500" 
d="M341 642c0 -44 -37 -89 -91 -89c-51 0 -91 41 -91 90c0 51 40 92 91 92c29 0 91 -20 91 -93zM290 642c0 10 -4 42 -38 42c-12 0 -42 -6 -42 -40c0 -17 10 -40 40 -40c39 0 40 37 40 38z" />
    <glyph glyph-name="cedilla" unicode="&#xb8;" horiz-adv-x="500" 
d="M251 0l-13 -45c18 -1 41 -3 60 -12c26 -13 44 -37 44 -66c0 -38 -34 -80 -94 -80c-35 0 -77 19 -100 29l16 38c13 -7 44 -23 76 -23c23 0 39 16 39 33c0 31 -37 45 -96 41l28 85h40z" />
    <glyph glyph-name="hungarumlaut" unicode="&#x2dd;" horiz-adv-x="500" 
d="M299 727l46 -57l-161 -103l-34 43zM465 727l46 -57l-160 -103l-29 43z" />
    <glyph glyph-name="ogonek" unicode="&#x2db;" horiz-adv-x="500" 
d="M462 -115l10 -36c-35 -15 -62 -17 -78 -17c-58 0 -97 30 -97 75c0 55 54 79 85 93h54c-30 -16 -70 -43 -70 -79c0 -24 16 -45 53 -45c18 0 31 5 43 9z" />
    <glyph glyph-name="caron" unicode="&#x2c7;" horiz-adv-x="500" 
d="M250 563l-170 141l88 10l82 -64l82 64l88 -10z" />
    <glyph glyph-name="emdash" unicode="&#x2014;" horiz-adv-x="1000" 
d="M1000 300v-91h-1000v91h1000z" />
    <glyph glyph-name="AE" unicode="&#xc6;" horiz-adv-x="846" 
d="M816 103v-103h-424v188h-199l-95 -188h-114l355 667h469v-97h-296v-184h235v-95h-235v-188h304zM241 281h151v304z" />
    <glyph glyph-name="ordfeminine" unicode="&#xaa;" horiz-adv-x="357" 
d="M310 564v-131c0 -27 6 -47 10 -62h-76c-3 9 -7 28 -10 42c-2 -2 -5 -4 -23 -24c-18 -16 -50 -24 -77 -24c-68 0 -107 42 -107 93c0 99 142 104 205 103v18c0 27 -16 42 -59 42c-57 0 -63 -27 -67 -46l-70 10c4 20 7 36 31 56c32 27 72 33 113 33c130 0 130 -63 130 -110z
M232 496v23c-32 0 -123 -3 -123 -57c0 -41 37 -41 48 -41c66 0 75 55 75 75z" />
    <glyph glyph-name="Lslash" unicode="&#x141;" horiz-adv-x="498" 
d="M483 109v-109h-410v222l-67 -68v115l67 68v330h127v-244l136 137v-115l-136 -137v-199h283z" />
    <glyph glyph-name="Oslash" unicode="&#xd8;" horiz-adv-x="643" 
d="M165 37l-45 -64h-92l81 118c-24 38 -71 112 -71 244c0 185 105 342 286 342c77 0 121 -25 154 -47l43 64h94l-81 -120c51 -70 71 -156 71 -242c0 -188 -101 -342 -286 -342c-55 0 -110 14 -154 47zM457 468l-228 -346c16 -15 41 -35 92 -35c58 0 103 36 124 77
c16 31 30 76 30 167c0 66 -8 101 -18 137zM185 200l230 345c-21 20 -48 35 -90 35c-40 0 -95 -15 -122 -69s-35 -117 -35 -177c0 -11 0 -79 17 -134z" />
    <glyph glyph-name="OE" unicode="&#x152;" horiz-adv-x="940" 
d="M465 667h445v-97h-325v-183h258v-95h-258v-189h325v-103h-445v33c-21 -14 -66 -43 -147 -43c-180 0 -280 159 -280 347c0 189 98 341 274 341c84 0 132 -28 153 -40v29zM465 214v235c-1 25 -3 57 -34 88c-29 30 -70 44 -104 44c-43 0 -86 -21 -114 -55
c-24 -29 -45 -72 -45 -185c0 -50 0 -250 154 -250c27 0 58 7 85 23c55 32 56 68 58 100z" />
    <glyph glyph-name="ordmasculine" unicode="&#xba;" horiz-adv-x="357" 
d="M323 520c0 -101 -70 -157 -152 -157c-103 0 -145 85 -145 156c0 83 54 155 150 155c95 0 147 -72 147 -154zM239 520c0 41 -11 93 -63 93c-55 0 -66 -53 -66 -95c0 -58 22 -94 64 -94c57 0 65 60 65 96z" />
    <glyph glyph-name="ae" unicode="&#xe6;" horiz-adv-x="858" 
d="M822 230h-347c0 -27 1 -56 17 -89c14 -30 48 -64 106 -64c67 0 98 42 112 78l103 -17c-30 -100 -129 -148 -223 -148c-31 0 -137 5 -193 103c-33 -48 -80 -103 -182 -103c-147 0 -179 97 -179 152c0 144 179 166 289 166c16 0 27 -1 44 -2c-1 56 -2 80 -29 97
c-13 8 -33 18 -74 18c-42 0 -64 -11 -77 -20c-23 -17 -28 -34 -32 -48l-99 12c7 29 19 74 82 108c52 28 120 30 140 30c66 0 122 -22 160 -56c34 27 76 56 154 56c99 0 162 -45 194 -103c37 -67 35 -124 34 -170zM479 305h228c-1 21 -3 54 -30 84c-18 20 -48 35 -84 35
c-69 0 -105 -47 -114 -119zM157 146c0 -53 44 -73 83 -73c37 0 80 17 106 54c23 33 22 80 22 119c-95 -4 -211 -9 -211 -100z" />
    <glyph glyph-name="dotlessi" unicode="&#x131;" horiz-adv-x="245" 
d="M178 0h-111v493h111v-493z" />
    <glyph glyph-name="lslash" unicode="&#x142;" horiz-adv-x="251" 
d="M181 0h-111v282l-63 -68v83l63 67v303h111v-225l63 67v-82l-63 -67v-360z" />
    <glyph glyph-name="oslash" unicode="&#xf8;" horiz-adv-x="529" 
d="M143 21l-39 -53h-69l65 91c-23 26 -65 90 -65 189c0 132 78 255 234 255c55 0 93 -18 120 -34l35 48h70l-63 -85c39 -47 63 -104 63 -183c0 -173 -110 -259 -237 -259c-55 0 -92 18 -114 31zM363 339l-160 -238c14 -10 30 -20 61 -20c111 0 112 135 112 171
c0 40 -7 67 -13 87zM168 151l162 239c-16 14 -38 22 -68 22c-63 0 -109 -54 -109 -165c0 -44 6 -68 15 -96z" />
    <glyph glyph-name="oe" unicode="&#x153;" horiz-adv-x="844" 
d="M809 234h-337c0 -116 57 -153 119 -153c50 0 91 24 109 76l102 -16c-13 -44 -42 -80 -77 -109c-25 -19 -65 -42 -139 -42c-110 0 -146 49 -164 74c-25 -29 -64 -74 -161 -74c-72 0 -122 20 -165 72c-46 56 -61 122 -61 185c0 131 75 256 229 256c102 0 138 -49 158 -75
c22 28 59 75 166 75c32 0 125 -2 183 -97c39 -61 38 -136 38 -172zM473 303h222c-3 90 -64 117 -110 117c-48 0 -76 -25 -90 -45c-18 -25 -20 -51 -22 -72zM371 254c0 56 -6 83 -22 109c-15 26 -47 49 -88 49c-102 0 -111 -123 -111 -169c0 -45 9 -162 109 -162
c112 0 112 143 112 173z" />
    <glyph glyph-name="germandbls" unicode="&#xdf;" horiz-adv-x="557" 
d="M70 -46v405h-54v87h54c2 59 5 142 56 200c46 51 114 69 168 69c104 0 190 -63 190 -155c0 -61 -36 -105 -73 -124c-35 -17 -68 -24 -99 -30c-7 -5 -13 -12 -13 -18c0 -13 31 -23 50 -30c54 -20 99 -43 117 -56c43 -32 70 -82 70 -136c0 -98 -77 -188 -207 -188
c-36 0 -77 11 -101 18l24 76c16 -4 40 -9 65 -9c102 0 114 47 114 74c0 53 -58 80 -99 98c-57 25 -117 53 -117 120c0 43 20 71 47 104c13 5 48 19 67 28s42 31 42 69c0 41 -28 80 -84 80c-45 0 -106 -30 -106 -123v-559h-111z" />
    <glyph glyph-name="logicalnot" unicode="&#xac;" 
d="M447 184v174h-400v93h493v-267h-93z" />
    <glyph glyph-name="mu" unicode="&#xb5;" horiz-adv-x="500" 
d="M32 -171v664h113v-272c0 -48 2 -82 30 -111c23 -23 52 -31 76 -31c34 0 60 16 75 34c30 34 30 85 30 113v267h112v-493h-112v64c-12 -24 -37 -75 -108 -75c-64 0 -90 44 -103 65v-225h-113z" />
    <glyph glyph-name="trademark" unicode="&#x2122;" horiz-adv-x="777" 
d="M196 287h-88v315h-106v65h301v-65h-107v-315zM738 287h-84v298l-101 -298h-46l-102 298v-298h-69v380h122l79 -228l78 228h123v-380z" />
    <glyph glyph-name="Eth" unicode="&#xd0;" horiz-adv-x="655" 
d="M3 290v97h67v280h246c38 0 125 -1 206 -83c65 -66 95 -158 95 -250c0 -141 -65 -225 -111 -266c-28 -25 -103 -68 -217 -68h-219v290h-67zM193 290v-192h101c104 0 193 80 193 241c0 122 -65 233 -179 233h-115v-185h165v-97h-165z" />
    <glyph glyph-name="onehalf" unicode="&#xbd;" horiz-adv-x="916" 
d="M257 676v-344h105v-65h-301v65h113v239c-57 -47 -90 -60 -115 -70v79c60 22 69 25 108 58c22 19 26 25 34 38h56zM216 0l412 667h72l-413 -667h-71zM878 68v-68h-317v74c60 38 67 42 124 77c54 33 106 74 106 121c0 33 -25 65 -72 65c-69 0 -76 -62 -79 -83l-80 19
c16 85 78 133 163 133c100 0 156 -61 156 -136c0 -86 -67 -123 -211 -202h210z" />
    <glyph glyph-name="plusminus" unicode="&#xb1;" 
d="M541 383v-93h-201v-207h-93v207h-200v93h200v208h93v-208h201zM541 50v-93h-494v93h494z" />
    <glyph glyph-name="Thorn" unicode="&#xde;" horiz-adv-x="606" 
d="M193 0h-120v667h120v-94h153c57 0 96 -6 140 -33c64 -40 90 -103 90 -164c0 -132 -102 -205 -216 -205h-167v-171zM193 474v-200h143c87 0 114 53 114 100c0 28 -11 49 -18 59c-18 29 -53 41 -107 41h-132z" />
    <glyph glyph-name="onequarter" unicode="&#xbc;" horiz-adv-x="916" 
d="M748 151v90c0 24 1 30 4 83l-117 -173h113zM216 0l412 667h71l-412 -667h-71zM827 408v-252h63v-67h-63v-89h-84v89h-187v56l188 263h83zM257 676v-344h105v-65h-301v65h113v239c-57 -47 -90 -60 -115 -70v79c60 22 69 25 108 58c22 19 26 25 34 38h56z" />
    <glyph glyph-name="divide" unicode="&#xf7;" 
d="M293 227c33 0 60 -27 60 -60s-27 -60 -60 -60s-60 27 -60 60s27 60 60 60zM293 566c33 0 60 -27 60 -60s-27 -60 -60 -60s-60 27 -60 60s27 60 60 60zM541 383v-93h-494v93h494z" />
    <glyph glyph-name="brokenbar" unicode="&#xa6;" horiz-adv-x="500" 
d="M306 675v-350h-113v350h113zM306 175v-350h-113v350h113z" />
    <glyph glyph-name="degree" unicode="&#xb0;" 
d="M160 546c0 68 54 134 133 134c76 0 134 -61 134 -134c0 -72 -59 -133 -134 -133c-79 0 -133 65 -133 133zM227 547c0 -35 28 -67 66 -67c37 0 67 30 67 67c0 35 -28 66 -66 66c-40 0 -67 -33 -67 -66z" />
    <glyph glyph-name="thorn" unicode="&#xfe;" horiz-adv-x="536" 
d="M178 -167h-111v834h111v-250c39 73 105 86 144 86c141 0 179 -158 179 -253c0 -71 -15 -142 -58 -199c-27 -36 -65 -61 -129 -61c-87 0 -121 53 -136 79v-236zM178 273v-71c0 -77 52 -124 103 -124c93 0 102 114 102 165c0 54 -12 169 -99 169c-53 0 -106 -49 -106 -139z
" />
    <glyph glyph-name="threequarters" unicode="&#xbe;" horiz-adv-x="916" 
d="M748 151v91c0 24 1 30 4 83l-117 -174h113zM217 0l411 667h72l-411 -667h-72zM827 0h-84v89h-186v56l187 263h83v-252h63v-67h-63v-89zM138 440v63h41c10 0 78 1 78 54c0 51 -53 53 -67 53c-53 0 -71 -30 -82 -57l-76 12c20 76 91 108 161 108c69 0 146 -34 146 -109
c0 -64 -48 -84 -63 -89c30 -12 76 -31 76 -95c0 -67 -61 -119 -162 -119c-91 0 -150 47 -170 110l78 18c6 -17 21 -66 90 -66c57 0 80 31 80 57c0 12 -6 60 -75 60h-55z" />
    <glyph glyph-name="registered" unicode="&#xae;" horiz-adv-x="492" 
d="M214 441v-84h-55v221h103c13 0 84 0 84 -66c0 -42 -30 -54 -41 -59l41 -96h-58l-35 84h-39zM214 538v-56h33c16 0 42 4 42 31c0 13 -9 25 -38 25h-37zM40 467c0 116 93 207 206 207c112 0 206 -91 206 -207c0 -113 -92 -206 -206 -206s-206 93 -206 206zM83 467
c0 -87 76 -163 163 -163s163 76 163 163c0 89 -76 164 -163 164c-86 0 -163 -75 -163 -164z" />
    <glyph glyph-name="minus" unicode="&#x2212;" 
d="M540 383v-93h-493v93h493z" />
    <glyph glyph-name="eth" unicode="&#xf0;" horiz-adv-x="529" 
d="M374 241c0 83 -32 161 -108 161c-21 0 -49 -7 -66 -21c-34 -29 -50 -91 -50 -134c0 -45 9 -87 29 -121c18 -31 46 -45 83 -45c103 0 112 117 112 160zM484 660l-117 -52c75 -89 127 -219 127 -351c0 -179 -112 -266 -232 -266c-178 0 -227 164 -227 254
c0 122 77 249 216 249c48 0 65 -11 94 -31c-16 42 -38 76 -64 106l-146 -66l-33 64l126 56c-16 15 -32 28 -49 42l80 35c19 -10 37 -23 55 -38l138 62z" />
    <glyph glyph-name="multiply" unicode="&#xd7;" 
d="M441 550l65 -67l-146 -146l146 -147l-65 -66l-147 147l-147 -147l-66 66l147 147l-147 147l66 66l147 -147z" />
    <glyph glyph-name="copyright" unicode="&#xa9;" horiz-adv-x="733" 
d="M447 277l80 -9c-6 -32 -10 -61 -43 -95c-34 -35 -74 -46 -120 -46c-144 0 -172 137 -172 206c0 115 61 206 174 206c93 0 144 -53 161 -145l-79 -8c-11 39 -24 89 -81 89c-64 0 -83 -72 -83 -140c0 -110 45 -142 86 -142c21 0 68 12 77 84zM369 681
c192 0 344 -160 344 -348c0 -193 -156 -347 -346 -347c-191 0 -347 155 -347 347c0 188 151 348 349 348zM368 625c-162 0 -286 -134 -286 -292c0 -162 129 -291 285 -291c154 0 284 128 284 291c0 158 -125 292 -283 292z" />
    <glyph glyph-name="Aacute" unicode="&#xc1;" horiz-adv-x="603" 
d="M372 667l224 -667h-128l-54 159h-256l-52 -159h-103l222 667h147zM188 255h194l-97 298zM438 872l30 -74l-210 -71l-19 52z" />
    <glyph glyph-name="Acircumflex" unicode="&#xc2;" horiz-adv-x="603" 
d="M372 667l224 -667h-128l-54 159h-256l-52 -159h-103l222 667h147zM188 255h194l-97 298zM300 867l174 -127l-93 -10l-81 54l-81 -54l-92 10z" />
    <glyph glyph-name="Adieresis" unicode="&#xc4;" horiz-adv-x="603" 
d="M372 667l224 -667h-128l-54 159h-256l-52 -159h-103l222 667h147zM188 255h194l-97 298zM270 791c0 -36 -29 -53 -56 -53c-34 0 -54 27 -54 53c0 25 19 54 54 54c25 0 56 -16 56 -54zM440 791c0 -36 -29 -53 -56 -53c-34 0 -54 27 -54 53c0 25 19 54 54 54
c25 0 56 -16 56 -54z" />
    <glyph glyph-name="Agrave" unicode="&#xc0;" horiz-adv-x="603" 
d="M372 667l224 -667h-128l-54 159h-256l-52 -159h-103l222 667h147zM188 255h194l-97 298zM212 872l199 -93l-19 -52l-210 71z" />
    <glyph glyph-name="Aring" unicode="&#xc5;" horiz-adv-x="603" 
d="M372 667l224 -667h-128l-54 159h-256l-52 -159h-103l222 667h147zM188 255h194l-97 298zM386 799c0 -44 -37 -89 -91 -89c-51 0 -91 41 -91 90c0 50 40 91 91 91c29 0 91 -20 91 -92zM335 798c0 11 -4 42 -38 42c-12 0 -42 -6 -42 -39c0 -17 10 -40 40 -40
c39 0 40 37 40 37z" />
    <glyph glyph-name="Atilde" unicode="&#xc3;" horiz-adv-x="603" 
d="M372 667l224 -667h-128l-54 159h-256l-52 -159h-103l222 667h147zM188 255h194l-97 298zM430 847l35 -50c-40 -57 -97 -57 -103 -57c-25 0 -47 9 -76 23c-32 15 -40 17 -49 17c-27 0 -51 -23 -67 -38l-35 50c15 18 49 56 102 56c19 0 34 -4 68 -18c35 -16 50 -21 69 -21
c29 0 43 20 56 38z" />
    <glyph glyph-name="Ccedilla" unicode="&#xc7;" horiz-adv-x="579" 
d="M310 -10l-12 -38c61 -2 112 -20 112 -79c0 -41 -31 -84 -100 -84c-45 0 -89 20 -111 30l16 40c42 -18 61 -25 82 -25c28 0 45 15 45 36c0 36 -38 43 -71 43c-9 0 -22 0 -30 -1l25 81c-168 19 -228 196 -228 341c0 173 80 343 271 343c142 0 225 -90 249 -236l-112 -12
c-12 53 -35 151 -135 151c-135 0 -143 -183 -143 -243c0 -191 76 -246 146 -246c63 0 122 50 132 141l112 -13c-26 -176 -149 -229 -248 -229z" />
    <glyph glyph-name="Eacute" unicode="&#xc9;" horiz-adv-x="537" 
d="M506 0h-433v667h429v-99h-309v-181h248v-97h-248v-187h313v-103zM428 872l30 -74l-210 -71l-19 52z" />
    <glyph glyph-name="Ecircumflex" unicode="&#xca;" horiz-adv-x="537" 
d="M506 0h-433v667h429v-99h-309v-181h248v-97h-248v-187h313v-103zM300 867l174 -127l-93 -10l-81 54l-81 -54l-92 10z" />
    <glyph glyph-name="Edieresis" unicode="&#xcb;" horiz-adv-x="537" 
d="M506 0h-433v667h429v-99h-309v-181h248v-97h-248v-187h313v-103zM275 791c0 -36 -29 -53 -56 -53c-34 0 -54 27 -54 53c0 25 19 54 54 54c25 0 56 -16 56 -54zM445 791c0 -36 -29 -53 -56 -53c-34 0 -54 27 -54 53c0 25 19 54 54 54c25 0 56 -16 56 -54z" />
    <glyph glyph-name="Egrave" unicode="&#xc8;" horiz-adv-x="537" 
d="M506 0h-433v667h429v-99h-309v-181h248v-97h-248v-187h313v-103zM147 872l199 -93l-19 -52l-210 71z" />
    <glyph glyph-name="Iacute" unicode="&#xcd;" horiz-adv-x="267" 
d="M193 0h-120v667h120v-667zM258 872l30 -74l-210 -71l-19 52z" />
    <glyph glyph-name="Icircumflex" unicode="&#xce;" horiz-adv-x="267" 
d="M193 0h-120v667h120v-667zM130 867l174 -127l-93 -10l-81 54l-81 -54l-92 10z" />
    <glyph glyph-name="Idieresis" unicode="&#xcf;" horiz-adv-x="267" 
d="M193 0h-120v667h120v-667zM100 791c0 -36 -29 -53 -56 -53c-34 0 -54 27 -54 53c0 25 19 54 54 54c25 0 56 -16 56 -54zM270 791c0 -36 -29 -53 -56 -53c-34 0 -54 27 -54 53c0 25 19 54 54 54c25 0 56 -16 56 -54z" />
    <glyph glyph-name="Igrave" unicode="&#xcc;" horiz-adv-x="267" 
d="M193 0h-120v667h120v-667zM2 872l199 -93l-19 -52l-210 71z" />
    <glyph glyph-name="Ntilde" unicode="&#xd1;" horiz-adv-x="650" 
d="M577 667v-667h-110l-261 426c-7 11 -31 62 -37 74v-500h-96v667h133l234 -393c2 -5 18 -34 41 -78v471h96zM460 847l35 -50c-40 -57 -97 -57 -103 -57c-25 0 -47 9 -76 23c-32 15 -40 17 -49 17c-27 0 -51 -23 -67 -38l-35 50c15 18 49 56 102 56c19 0 34 -4 68 -18
c35 -16 50 -21 69 -21c29 0 43 20 56 38z" />
    <glyph glyph-name="Oacute" unicode="&#xd3;" horiz-adv-x="643" 
d="M605 334c0 -204 -111 -344 -286 -344c-210 0 -281 195 -281 346c0 180 102 341 286 341c188 0 281 -164 281 -343zM475 335c0 27 -2 109 -33 172c-34 69 -93 73 -120 73c-126 0 -154 -129 -154 -248c0 -79 13 -245 152 -245c60 0 105 37 125 77c16 32 30 76 30 171z
M453 872l30 -74l-210 -71l-19 52z" />
    <glyph glyph-name="Ocircumflex" unicode="&#xd4;" horiz-adv-x="643" 
d="M605 334c0 -204 -111 -344 -286 -344c-210 0 -281 195 -281 346c0 180 102 341 286 341c188 0 281 -164 281 -343zM475 335c0 27 -2 109 -33 172c-34 69 -93 73 -120 73c-126 0 -154 -129 -154 -248c0 -79 13 -245 152 -245c60 0 105 37 125 77c16 32 30 76 30 171z
M325 867l174 -127l-93 -10l-81 54l-81 -54l-92 10z" />
    <glyph glyph-name="Odieresis" unicode="&#xd6;" horiz-adv-x="643" 
d="M605 334c0 -204 -111 -344 -286 -344c-210 0 -281 195 -281 346c0 180 102 341 286 341c188 0 281 -164 281 -343zM475 335c0 27 -2 109 -33 172c-34 69 -93 73 -120 73c-126 0 -154 -129 -154 -248c0 -79 13 -245 152 -245c60 0 105 37 125 77c16 32 30 76 30 171z
M295 791c0 -36 -29 -53 -56 -53c-34 0 -54 27 -54 53c0 25 19 54 54 54c25 0 56 -16 56 -54zM465 791c0 -36 -29 -53 -56 -53c-34 0 -54 27 -54 53c0 25 19 54 54 54c25 0 56 -16 56 -54z" />
    <glyph glyph-name="Ograve" unicode="&#xd2;" horiz-adv-x="643" 
d="M605 334c0 -204 -111 -344 -286 -344c-210 0 -281 195 -281 346c0 180 102 341 286 341c188 0 281 -164 281 -343zM475 335c0 27 -2 109 -33 172c-34 69 -93 73 -120 73c-126 0 -154 -129 -154 -248c0 -79 13 -245 152 -245c60 0 105 37 125 77c16 32 30 76 30 171z
M172 872l199 -93l-19 -52l-210 71z" />
    <glyph glyph-name="Otilde" unicode="&#xd5;" horiz-adv-x="643" 
d="M605 334c0 -204 -111 -344 -286 -344c-210 0 -281 195 -281 346c0 180 102 341 286 341c188 0 281 -164 281 -343zM475 335c0 27 -2 109 -33 172c-34 69 -93 73 -120 73c-126 0 -154 -129 -154 -248c0 -79 13 -245 152 -245c60 0 105 37 125 77c16 32 30 76 30 171z
M450 847l35 -50c-40 -57 -97 -57 -103 -57c-25 0 -47 9 -76 23c-32 15 -40 17 -49 17c-27 0 -51 -23 -67 -38l-35 50c15 18 49 56 102 56c19 0 34 -4 68 -18c35 -16 50 -21 69 -21c29 0 43 20 56 38z" />
    <glyph glyph-name="Scaron" unicode="&#x160;" horiz-adv-x="571" 
d="M4 161l116 25c6 -24 18 -67 78 -86c33 -11 61 -13 83 -13c111 0 133 58 133 88c0 63 -52 79 -82 87l-149 38c-97 25 -144 93 -144 178c0 126 102 199 236 199c66 0 131 -17 183 -58c40 -32 50 -64 56 -86l-114 -29c-8 23 -28 76 -123 76c-92 0 -115 -49 -115 -83
c0 -52 59 -71 93 -80l113 -28c57 -15 173 -47 173 -190c0 -132 -113 -209 -265 -209c-80 0 -150 19 -205 63c-45 36 -57 77 -67 108zM280 723l-173 128l92 10l81 -55l81 55l93 -10z" />
    <glyph glyph-name="Uacute" unicode="&#xda;" horiz-adv-x="595" 
d="M530 667v-429c0 -73 0 -156 -94 -214c-53 -32 -117 -34 -138 -34c-40 0 -131 8 -179 64c-50 60 -53 116 -53 175v438h123v-429c0 -39 5 -83 29 -108c22 -23 60 -35 94 -35c38 0 81 15 99 41c20 28 23 70 23 102v429h96zM468 872l30 -74l-210 -71l-19 52z" />
    <glyph glyph-name="Ucircumflex" unicode="&#xdb;" horiz-adv-x="595" 
d="M530 667v-429c0 -73 0 -156 -94 -214c-53 -32 -117 -34 -138 -34c-40 0 -131 8 -179 64c-50 60 -53 116 -53 175v438h123v-429c0 -39 5 -83 29 -108c22 -23 60 -35 94 -35c38 0 81 15 99 41c20 28 23 70 23 102v429h96zM300 867l174 -127l-93 -10l-81 54l-81 -54l-92 10z
" />
    <glyph glyph-name="Udieresis" unicode="&#xdc;" horiz-adv-x="595" 
d="M530 667v-429c0 -73 0 -156 -94 -214c-53 -32 -117 -34 -138 -34c-40 0 -131 8 -179 64c-50 60 -53 116 -53 175v438h123v-429c0 -39 5 -83 29 -108c22 -23 60 -35 94 -35c38 0 81 15 99 41c20 28 23 70 23 102v429h96zM270 791c0 -36 -29 -53 -56 -53
c-34 0 -54 27 -54 53c0 25 19 54 54 54c25 0 56 -16 56 -54zM440 791c0 -36 -29 -53 -56 -53c-34 0 -54 27 -54 53c0 25 19 54 54 54c25 0 56 -16 56 -54z" />
    <glyph glyph-name="Ugrave" unicode="&#xd9;" horiz-adv-x="595" 
d="M530 667v-429c0 -73 0 -156 -94 -214c-53 -32 -117 -34 -138 -34c-40 0 -131 8 -179 64c-50 60 -53 116 -53 175v438h123v-429c0 -39 5 -83 29 -108c22 -23 60 -35 94 -35c38 0 81 15 99 41c20 28 23 70 23 102v429h96zM147 872l199 -93l-19 -52l-210 71z" />
    <glyph glyph-name="Yacute" unicode="&#xdd;" horiz-adv-x="544" 
d="M341 0h-127v281l-227 386h145l158 -275l151 275h116l-216 -386v-281zM438 872l30 -74l-210 -71l-19 52z" />
    <glyph glyph-name="Ydieresis" unicode="&#x178;" horiz-adv-x="544" 
d="M341 0h-127v281l-227 386h145l158 -275l151 275h116l-216 -386v-281zM250 791c0 -36 -29 -53 -56 -53c-34 0 -54 27 -54 53c0 25 19 54 54 54c25 0 56 -16 56 -54zM420 791c0 -36 -29 -53 -56 -53c-34 0 -54 27 -54 53c0 25 19 54 54 54c25 0 56 -16 56 -54z" />
    <glyph glyph-name="Zcaron" unicode="&#x17d;" horiz-adv-x="533" 
d="M513 103v-103h-493v94l342 478h-318v95h459v-95l-338 -469h348zM280 723l-173 128l92 10l81 -55l81 55l93 -10z" />
    <glyph glyph-name="aacute" unicode="&#xe1;" horiz-adv-x="540" 
d="M474 322v-222c0 -47 10 -83 15 -100h-106c-13 40 -15 60 -18 100c-15 -35 -49 -110 -167 -110c-106 0 -163 71 -163 152c0 166 224 171 330 169v37c0 63 -55 76 -105 76c-98 0 -110 -54 -115 -76l-95 14c19 111 123 141 223 141c54 0 116 -7 150 -36
c51 -44 51 -83 51 -145zM365 206v45c-70 0 -113 -10 -135 -16c-22 -7 -81 -24 -81 -87c0 -18 8 -74 87 -74c109 0 129 93 129 132zM380 726l33 -73l-204 -86l-20 52z" />
    <glyph glyph-name="acircumflex" unicode="&#xe2;" horiz-adv-x="540" 
d="M474 322v-222c0 -47 10 -83 15 -100h-106c-13 40 -15 60 -18 100c-15 -35 -49 -110 -167 -110c-106 0 -163 71 -163 152c0 166 224 171 330 169v37c0 63 -55 76 -105 76c-98 0 -110 -54 -115 -76l-95 14c19 111 123 141 223 141c54 0 116 -7 150 -36
c51 -44 51 -83 51 -145zM365 206v45c-70 0 -113 -10 -135 -16c-22 -7 -81 -24 -81 -87c0 -18 8 -74 87 -74c109 0 129 93 129 132zM270 721l170 -141l-88 -10l-82 64l-82 -64l-88 10z" />
    <glyph glyph-name="adieresis" unicode="&#xe4;" horiz-adv-x="540" 
d="M474 322v-222c0 -47 10 -83 15 -100h-106c-13 40 -15 60 -18 100c-15 -35 -49 -110 -167 -110c-106 0 -163 71 -163 152c0 166 224 171 330 169v37c0 63 -55 76 -105 76c-98 0 -110 -54 -115 -76l-95 14c19 111 123 141 223 141c54 0 116 -7 150 -36
c51 -44 51 -83 51 -145zM365 206v45c-70 0 -113 -10 -135 -16c-22 -7 -81 -24 -81 -87c0 -18 8 -74 87 -74c109 0 129 93 129 132zM243 633c0 -36 -29 -53 -56 -53c-34 0 -54 27 -54 53c0 25 19 54 54 54c25 0 56 -16 56 -54zM407 633c0 -36 -29 -53 -56 -53
c-34 0 -54 27 -54 53c0 25 19 54 54 54c25 0 56 -16 56 -54z" />
    <glyph glyph-name="agrave" unicode="&#xe0;" horiz-adv-x="540" 
d="M474 322v-222c0 -47 10 -83 15 -100h-106c-13 40 -15 60 -18 100c-15 -35 -49 -110 -167 -110c-106 0 -163 71 -163 152c0 166 224 171 330 169v37c0 63 -55 76 -105 76c-98 0 -110 -54 -115 -76l-95 14c19 111 123 141 223 141c54 0 116 -7 150 -36
c51 -44 51 -83 51 -145zM365 206v45c-70 0 -113 -10 -135 -16c-22 -7 -81 -24 -81 -87c0 -18 8 -74 87 -74c109 0 129 93 129 132zM157 726l192 -107l-21 -52l-203 86z" />
    <glyph glyph-name="aring" unicode="&#xe5;" horiz-adv-x="540" 
d="M474 322v-222c0 -47 10 -83 15 -100h-106c-13 40 -15 60 -18 100c-15 -35 -49 -110 -167 -110c-106 0 -163 71 -163 152c0 166 224 171 330 169v37c0 63 -55 76 -105 76c-98 0 -110 -54 -115 -76l-95 14c19 111 123 141 223 141c54 0 116 -7 150 -36
c51 -44 51 -83 51 -145zM365 206v45c-70 0 -113 -10 -135 -16c-22 -7 -81 -24 -81 -87c0 -18 8 -74 87 -74c109 0 129 93 129 132zM371 642c0 -44 -37 -89 -91 -89c-51 0 -91 41 -91 90c0 51 40 92 91 92c29 0 91 -20 91 -93zM320 642c0 10 -4 42 -38 42
c-12 0 -42 -6 -42 -40c0 -17 10 -40 40 -40c39 0 40 37 40 38z" />
    <glyph glyph-name="atilde" unicode="&#xe3;" horiz-adv-x="540" 
d="M474 322v-222c0 -47 10 -83 15 -100h-106c-13 40 -15 60 -18 100c-15 -35 -49 -110 -167 -110c-106 0 -163 71 -163 152c0 166 224 171 330 169v37c0 63 -55 76 -105 76c-98 0 -110 -54 -115 -76l-95 14c19 111 123 141 223 141c54 0 116 -7 150 -36
c51 -44 51 -83 51 -145zM365 206v45c-70 0 -113 -10 -135 -16c-22 -7 -81 -24 -81 -87c0 -18 8 -74 87 -74c109 0 129 93 129 132zM395 693l34 -50c-24 -43 -77 -57 -100 -57c-26 0 -46 10 -88 31c-10 5 -20 10 -35 10c-10 0 -23 0 -61 -38l-34 50c15 18 47 56 98 56
c18 0 33 -4 66 -19c34 -16 48 -21 66 -21c28 0 42 20 54 38z" />
    <glyph glyph-name="ccedilla" unicode="&#xe7;" horiz-adv-x="466" 
d="M251 -10l-10 -35c18 -1 41 -3 60 -12c26 -13 44 -37 44 -66c0 -38 -34 -80 -94 -80c-35 0 -77 19 -100 29l16 38c13 -7 44 -23 75 -23c24 0 40 16 40 33c0 31 -37 45 -96 41l25 77c-140 22 -176 165 -176 254c0 136 75 257 220 257c162 0 185 -131 192 -170l-96 -13
c-8 65 -44 92 -90 92c-64 0 -85 -51 -94 -77c-11 -33 -14 -70 -14 -93c0 -21 0 -155 101 -155c53 0 83 38 97 94l96 -10c-11 -49 -40 -176 -196 -181z" />
    <glyph glyph-name="eacute" unicode="&#xe9;" horiz-adv-x="524" 
d="M380 157l100 -14c-35 -109 -121 -153 -218 -153c-163 0 -227 131 -227 255c0 145 87 258 232 258c160 0 225 -127 222 -270h-338c-1 -33 -2 -72 26 -111c21 -31 52 -45 92 -45c79 0 100 53 111 80zM151 305h222c-1 25 -3 48 -24 77c-20 26 -48 43 -86 43s-68 -16 -89 -48
c-17 -25 -20 -46 -23 -72zM372 726l33 -73l-204 -86l-20 52z" />
    <glyph glyph-name="ecircumflex" unicode="&#xea;" horiz-adv-x="524" 
d="M380 157l100 -14c-35 -109 -121 -153 -218 -153c-163 0 -227 131 -227 255c0 145 87 258 232 258c160 0 225 -127 222 -270h-338c-1 -33 -2 -72 26 -111c21 -31 52 -45 92 -45c79 0 100 53 111 80zM151 305h222c-1 25 -3 48 -24 77c-20 26 -48 43 -86 43s-68 -16 -89 -48
c-17 -25 -20 -46 -23 -72zM262 721l170 -141l-88 -10l-82 64l-82 -64l-88 10z" />
    <glyph glyph-name="edieresis" unicode="&#xeb;" horiz-adv-x="524" 
d="M380 157l100 -14c-35 -109 -121 -153 -218 -153c-163 0 -227 131 -227 255c0 145 87 258 232 258c160 0 225 -127 222 -270h-338c-1 -33 -2 -72 26 -111c21 -31 52 -45 92 -45c79 0 100 53 111 80zM151 305h222c-1 25 -3 48 -24 77c-20 26 -48 43 -86 43s-68 -16 -89 -48
c-17 -25 -20 -46 -23 -72zM235 633c0 -36 -29 -53 -56 -53c-34 0 -54 27 -54 53c0 25 19 54 54 54c25 0 56 -16 56 -54zM399 633c0 -36 -29 -53 -56 -53c-34 0 -54 27 -54 53c0 25 19 54 54 54c25 0 56 -16 56 -54z" />
    <glyph glyph-name="egrave" unicode="&#xe8;" horiz-adv-x="524" 
d="M380 157l100 -14c-35 -109 -121 -153 -218 -153c-163 0 -227 131 -227 255c0 145 87 258 232 258c160 0 225 -127 222 -270h-338c-1 -33 -2 -72 26 -111c21 -31 52 -45 92 -45c79 0 100 53 111 80zM151 305h222c-1 25 -3 48 -24 77c-20 26 -48 43 -86 43s-68 -16 -89 -48
c-17 -25 -20 -46 -23 -72zM149 726l192 -107l-21 -52l-203 86z" />
    <glyph glyph-name="iacute" unicode="&#xed;" horiz-adv-x="245" 
d="M178 0h-111v493h111v-493zM233 726l33 -73l-204 -86l-20 52z" />
    <glyph glyph-name="icircumflex" unicode="&#xee;" horiz-adv-x="245" 
d="M178 0h-111v493h111v-493zM123 721l170 -141l-88 -10l-82 64l-82 -64l-88 10z" />
    <glyph glyph-name="idieresis" unicode="&#xef;" horiz-adv-x="245" 
d="M178 0h-111v493h111v-493zM96 633c0 -36 -29 -53 -56 -53c-34 0 -54 27 -54 53c0 25 19 54 54 54c25 0 56 -16 56 -54zM260 633c0 -36 -29 -53 -56 -53c-34 0 -54 27 -54 53c0 25 19 54 54 54c25 0 56 -16 56 -54z" />
    <glyph glyph-name="igrave" unicode="&#xec;" horiz-adv-x="245" 
d="M178 0h-111v493h111v-493zM10 726l192 -107l-21 -52l-203 86z" />
    <glyph glyph-name="ntilde" unicode="&#xf1;" horiz-adv-x="541" 
d="M67 0v493h101v-114c19 41 57 124 149 124c160 0 157 -146 157 -211v-292h-111v290c0 114 -57 116 -76 116c-24 0 -109 -6 -109 -175v-231h-111zM396 693l34 -50c-24 -43 -77 -57 -100 -57c-26 0 -46 10 -88 31c-10 5 -20 10 -35 10c-10 0 -23 0 -61 -38l-34 50
c15 18 47 56 98 56c18 0 33 -4 66 -19c34 -16 48 -21 66 -21c28 0 42 20 54 38z" />
    <glyph glyph-name="oacute" unicode="&#xf3;" horiz-adv-x="529" 
d="M494 248c0 -167 -108 -258 -234 -258c-165 0 -225 146 -225 259c0 134 82 254 232 254c149 0 227 -121 227 -255zM376 249c0 85 -26 163 -110 163c-90 0 -113 -88 -113 -165c0 -25 0 -166 111 -166c103 0 112 117 112 168zM375 726l33 -73l-204 -86l-20 52z" />
    <glyph glyph-name="ocircumflex" unicode="&#xf4;" horiz-adv-x="529" 
d="M494 248c0 -167 -108 -258 -234 -258c-165 0 -225 146 -225 259c0 134 82 254 232 254c149 0 227 -121 227 -255zM376 249c0 85 -26 163 -110 163c-90 0 -113 -88 -113 -165c0 -25 0 -166 111 -166c103 0 112 117 112 168zM265 721l170 -141l-88 -10l-82 64l-82 -64
l-88 10z" />
    <glyph glyph-name="odieresis" unicode="&#xf6;" horiz-adv-x="529" 
d="M494 248c0 -167 -108 -258 -234 -258c-165 0 -225 146 -225 259c0 134 82 254 232 254c149 0 227 -121 227 -255zM376 249c0 85 -26 163 -110 163c-90 0 -113 -88 -113 -165c0 -25 0 -166 111 -166c103 0 112 117 112 168zM238 633c0 -36 -29 -53 -56 -53
c-34 0 -54 27 -54 53c0 25 19 54 54 54c25 0 56 -16 56 -54zM402 633c0 -36 -29 -53 -56 -53c-34 0 -54 27 -54 53c0 25 19 54 54 54c25 0 56 -16 56 -54z" />
    <glyph glyph-name="ograve" unicode="&#xf2;" horiz-adv-x="529" 
d="M494 248c0 -167 -108 -258 -234 -258c-165 0 -225 146 -225 259c0 134 82 254 232 254c149 0 227 -121 227 -255zM376 249c0 85 -26 163 -110 163c-90 0 -113 -88 -113 -165c0 -25 0 -166 111 -166c103 0 112 117 112 168zM152 726l192 -107l-21 -52l-203 86z" />
    <glyph glyph-name="otilde" unicode="&#xf5;" horiz-adv-x="529" 
d="M494 248c0 -167 -108 -258 -234 -258c-165 0 -225 146 -225 259c0 134 82 254 232 254c149 0 227 -121 227 -255zM376 249c0 85 -26 163 -110 163c-90 0 -113 -88 -113 -165c0 -25 0 -166 111 -166c103 0 112 117 112 168zM390 693l34 -50c-24 -43 -77 -57 -100 -57
c-26 0 -46 10 -88 31c-10 5 -20 10 -35 10c-10 0 -23 0 -61 -38l-34 50c15 18 47 56 98 56c18 0 33 -4 66 -19c34 -16 48 -21 66 -21c28 0 42 20 54 38z" />
    <glyph glyph-name="scaron" unicode="&#x161;" horiz-adv-x="454" 
d="M6 113l105 20c10 -23 27 -60 105 -60c24 0 104 2 104 61c0 31 -34 45 -54 49l-90 18c-47 8 -150 31 -150 145c0 53 29 157 189 157c58 0 160 -12 191 -114l-99 -20c-5 16 -18 55 -89 55c-61 0 -89 -23 -89 -56c0 -30 32 -45 72 -53l106 -22c80 -16 124 -65 124 -142
c0 -137 -147 -161 -215 -161c-117 0 -190 50 -210 123zM227 563l-170 141l88 10l82 -64l82 64l88 -10z" />
    <glyph glyph-name="uacute" unicode="&#xfa;" horiz-adv-x="539" 
d="M472 493v-493h-104v106c-9 -26 -19 -53 -52 -80c-17 -14 -50 -36 -103 -36c-45 0 -93 16 -121 60c-20 32 -25 53 -25 98v345h114v-313c0 -53 17 -95 69 -95c36 0 81 27 97 69c11 29 14 55 14 102v237h111zM380 726l33 -73l-204 -86l-20 52z" />
    <glyph glyph-name="ucircumflex" unicode="&#xfb;" horiz-adv-x="539" 
d="M472 493v-493h-104v106c-9 -26 -19 -53 -52 -80c-17 -14 -50 -36 -103 -36c-45 0 -93 16 -121 60c-20 32 -25 53 -25 98v345h114v-313c0 -53 17 -95 69 -95c36 0 81 27 97 69c11 29 14 55 14 102v237h111zM270 721l170 -141l-88 -10l-82 64l-82 -64l-88 10z" />
    <glyph glyph-name="udieresis" unicode="&#xfc;" horiz-adv-x="539" 
d="M472 493v-493h-104v106c-9 -26 -19 -53 -52 -80c-17 -14 -50 -36 -103 -36c-45 0 -93 16 -121 60c-20 32 -25 53 -25 98v345h114v-313c0 -53 17 -95 69 -95c36 0 81 27 97 69c11 29 14 55 14 102v237h111zM243 633c0 -36 -29 -53 -56 -53c-34 0 -54 27 -54 53
c0 25 19 54 54 54c25 0 56 -16 56 -54zM407 633c0 -36 -29 -53 -56 -53c-34 0 -54 27 -54 53c0 25 19 54 54 54c25 0 56 -16 56 -54z" />
    <glyph glyph-name="ugrave" unicode="&#xf9;" horiz-adv-x="539" 
d="M472 493v-493h-104v106c-9 -26 -19 -53 -52 -80c-17 -14 -50 -36 -103 -36c-45 0 -93 16 -121 60c-20 32 -25 53 -25 98v345h114v-313c0 -53 17 -95 69 -95c36 0 81 27 97 69c11 29 14 55 14 102v237h111zM116 726l192 -107l-21 -52l-203 86z" />
    <glyph glyph-name="yacute" unicode="&#xfd;" horiz-adv-x="442" 
d="M435 493l-192 -562c-33 -97 -89 -109 -134 -109c-7 0 -29 1 -64 4v88c63 -2 89 -3 110 14c15 13 31 60 31 71c0 3 -8 26 -10 31l-169 463h116l120 -326l103 326h89zM331 726l33 -73l-204 -86l-20 52z" />
    <glyph glyph-name="ydieresis" unicode="&#xff;" horiz-adv-x="442" 
d="M435 493l-192 -562c-33 -97 -89 -109 -134 -109c-7 0 -29 1 -64 4v88c63 -2 89 -3 110 14c15 13 31 60 31 71c0 3 -8 26 -10 31l-169 463h116l120 -326l103 326h89zM194 633c0 -36 -29 -53 -56 -53c-34 0 -54 27 -54 53c0 25 19 54 54 54c25 0 56 -16 56 -54zM358 633
c0 -36 -29 -53 -56 -53c-34 0 -54 27 -54 53c0 25 19 54 54 54c25 0 56 -16 56 -54z" />
    <glyph glyph-name="zcaron" unicode="&#x17e;" horiz-adv-x="419" 
d="M395 87v-87h-372v87l243 319h-220v87h349v-79l-240 -327h240zM210 563l-170 141l88 10l82 -64l82 64l88 -10z" />
    <glyph glyph-name="one.superior" horiz-adv-x="387" 
d="M258 676v-344h105v-65h-301v65h113v239c-57 -47 -90 -60 -115 -70v79c60 22 69 25 108 58c22 19 26 25 34 38h56z" />
    <glyph glyph-name="two.superior" horiz-adv-x="387" 
d="M348 335v-68h-317v74c39 24 101 62 139 86c22 14 51 36 70 60c15 18 21 33 21 52c0 34 -24 66 -72 66c-69 0 -76 -62 -79 -84l-79 19c15 85 77 133 162 133c100 0 156 -60 156 -135c0 -87 -67 -124 -211 -203h210z" />
    <glyph glyph-name="three.superior" horiz-adv-x="387" 
d="M138 440v63h41c10 0 78 1 78 54c0 51 -53 53 -67 53c-53 0 -71 -30 -82 -57l-76 12c20 76 91 108 161 108c69 0 146 -34 146 -109c0 -64 -48 -84 -63 -89c30 -12 76 -31 76 -95c0 -67 -61 -119 -162 -119c-91 0 -150 47 -170 110l78 18c6 -17 21 -66 90 -66
c57 0 80 31 80 57c0 12 -6 60 -75 60h-55z" />
    <glyph glyph-name="a.superior" horiz-adv-x="357" 
d="M310 564v-131c0 -27 6 -47 10 -62h-76c-3 9 -7 28 -10 42c-2 -2 -5 -4 -23 -24c-18 -16 -50 -24 -77 -24c-68 0 -107 42 -107 93c0 99 142 104 205 103v18c0 27 -16 42 -59 42c-57 0 -63 -27 -67 -46l-70 10c4 20 7 36 31 56c32 27 72 33 113 33c130 0 130 -63 130 -110z
M232 496v23c-32 0 -123 -3 -123 -57c0 -41 37 -41 48 -41c66 0 75 55 75 75z" />
    <glyph glyph-name="Omega" unicode="&#x2126;" horiz-adv-x="756" 
d="M196 82v3c-69 54 -136 148 -136 276c0 175 134 311 320 311c197 0 315 -153 315 -307c0 -131 -68 -228 -138 -280v-3h152v-82h-269v62c76 43 148 133 148 283c0 121 -74 244 -208 244c-127 0 -213 -108 -213 -247c0 -138 71 -239 148 -280v-62h-269v82h150z" />
    <glyph glyph-name="uni03BC" unicode="&#x3bc;" horiz-adv-x="500" 
d="M32 -171v664h113v-272c0 -48 2 -82 30 -111c23 -23 52 -31 76 -31c34 0 60 16 75 34c30 34 30 85 30 113v267h112v-493h-112v64c-12 -24 -37 -75 -108 -75c-64 0 -90 44 -103 65v-225h-113z" />
    <glyph glyph-name="pi" unicode="&#x3c0;" horiz-adv-x="612" 
d="M586 409h-79v-262c0 -77 7 -119 14 -147h-103c-11 17 -18 64 -18 139v270h-165c-5 -115 -34 -322 -70 -409h-105c36 103 66 293 69 409c-56 0 -87 -4 -110 -11l-13 67c25 18 74 30 160 30h429z" />
    <glyph glyph-name="Euro" unicode="&#x20ac;" 
d="M397 315l-12 -70h-169c19 -102 68 -161 129 -161c67 0 113 45 128 106l103 -13c-7 -35 -20 -70 -53 -110c-16 -20 -67 -77 -184 -77c-74 0 -127 23 -177 83c-35 42 -59 102 -69 172h-86l12 70h68v20c0 13 0 25 1 37h-81l12 70h78c29 147 122 235 251 235
c126 0 201 -81 225 -188l-106 -12c-17 56 -45 111 -126 111c-58 0 -104 -53 -123 -146h199l-12 -70h-196c-1 -11 -1 -23 -1 -35v-22h189z" />
    <glyph glyph-name="afii61289" unicode="&#x2113;" horiz-adv-x="523" 
d="M454 170l47 -44c-52 -94 -128 -132 -210 -132c-115 0 -167 74 -178 161c0 4 0 7 -1 11c-17 -13 -36 -28 -55 -42l-30 57c29 22 58 42 84 64v244c0 176 81 241 173 241c97 0 140 -76 140 -164c0 -118 -82 -226 -212 -341l1 -29c1 -81 49 -119 102 -119c61 0 112 48 139 93
zM212 501v-182c80 82 140 168 140 247c0 54 -17 91 -65 91c-34 0 -75 -36 -75 -156z" />
    <glyph glyph-name="estimated" unicode="&#x212e;" horiz-adv-x="828" 
d="M795 324h-618c-3 0 -5 -1 -5 -4v-187c0 -8 3 -15 8 -22c60 -62 143 -101 234 -101c99 0 186 45 246 114h55c-68 -81 -179 -133 -302 -133c-210 0 -381 153 -381 342c0 190 171 344 381 344c212 0 382 -154 382 -344v-9zM655 348v188c0 8 -3 17 -9 23
c-60 59 -141 97 -232 97c-90 0 -173 -39 -233 -100c-6 -7 -9 -15 -9 -24v-184c0 -2 2 -6 5 -6h474c3 0 4 4 4 6z" />
    <glyph glyph-name="partialdiff" unicode="&#x2202;" horiz-adv-x="582" 
d="M104 617l-33 73c32 23 92 56 185 56c148 0 277 -127 277 -363c0 -219 -103 -389 -284 -389c-144 0 -210 124 -210 224c0 146 99 243 222 243c93 0 151 -64 167 -91h1c1 10 1 27 1 37c0 146 -80 255 -187 255c-65 0 -112 -26 -139 -45zM259 77h1c88 0 144 105 157 206
c-12 36 -61 97 -135 97c-78 0 -138 -74 -138 -163c0 -78 46 -140 115 -140z" />
    <glyph glyph-name="product" unicode="&#x220f;" horiz-adv-x="737" 
d="M712 570h-112v-661h-103v661h-258v-661h-103v661h-112v91h688v-91z" />
    <glyph glyph-name="summation" unicode="&#x2211;" horiz-adv-x="579" 
d="M558 -91h-536v64l264 311l-252 307v70h508v-88h-363v-3l227 -272l-247 -293v-3h399v-93z" />
    <glyph glyph-name="uni2219" unicode="&#x2219;" horiz-adv-x="247" 
d="M184 318v-128h-121v128h121z" />
    <glyph glyph-name="radical" unicode="&#x221a;" horiz-adv-x="601" 
d="M609 788l-233 -927h-87l-161 426l-77 -29l-19 57l158 63l122 -335c7 -25 15 -51 20 -72h1c4 20 10 47 15 75l185 742h76z" />
    <glyph glyph-name="infinity" unicode="&#x221e;" horiz-adv-x="778" 
d="M729 274v-1c0 -103 -77 -165 -157 -165c-60 0 -113 32 -182 116c-52 -62 -106 -116 -187 -116c-82 0 -154 67 -154 161c0 96 70 165 162 165c75 0 131 -51 183 -115c47 52 98 115 184 115c88 -1 151 -65 151 -160zM211 166h1c60 0 107 58 146 101
c-43 54 -83 110 -152 110c-59 0 -95 -49 -95 -109c0 -55 41 -102 100 -102zM572 377h-1c-64 0 -113 -69 -147 -105c64 -74 100 -106 151 -106c59 0 93 55 93 103c0 65 -40 108 -96 108z" />
    <glyph glyph-name="integral" unicode="&#x222b;" horiz-adv-x="377" 
d="M362 801l-13 -69c-9 5 -24 10 -38 10c-19 0 -39 -7 -52 -24c-24 -28 -31 -80 -31 -163c0 -152 15 -301 15 -464c0 -94 -18 -154 -40 -189c-25 -43 -71 -61 -116 -61c-29 0 -60 9 -74 17l14 71c10 -5 27 -12 47 -12c17 0 35 7 46 21c20 24 33 63 33 154
c0 164 -15 317 -15 473c0 107 16 167 58 208c28 29 68 41 106 41c24 0 49 -7 60 -13z" />
    <glyph glyph-name="approxequal" unicode="&#x2248;" horiz-adv-x="574" 
d="M491 427l38 -37c-32 -57 -77 -97 -136 -97c-43 0 -71 15 -118 41c-30 17 -58 33 -93 33c-46 0 -74 -35 -101 -72l-39 36c31 57 86 97 146 97c49 0 83 -23 112 -38c37 -21 58 -36 94 -36c40 0 67 26 97 73zM491 248l38 -37c-32 -56 -76 -97 -136 -97c-43 0 -72 16 -118 42
c-31 17 -59 33 -92 33c-48 0 -75 -36 -102 -73l-39 36c31 57 86 97 146 97c50 0 83 -23 111 -37c33 -18 57 -36 94 -36c42 0 67 25 98 72z" />
    <glyph glyph-name="notequal" unicode="&#x2260;" horiz-adv-x="574" 
d="M414 494l-43 -94h152v-61h-177l-64 -140h241v-61h-267l-54 -118l-49 22l44 96h-147v61h173l64 140h-237v61h262l53 116z" />
    <glyph glyph-name="lessequal" unicode="&#x2264;" horiz-adv-x="574" 
d="M520 92l-464 221v65l464 221v-71l-399 -181v-2l399 -182v-71zM523 -9h-472v63h472v-63z" />
    <glyph glyph-name="greaterequal" unicode="&#x2265;" horiz-adv-x="574" 
d="M56 599l465 -221v-66l-464 -220v71l399 182v2l-400 181v71zM521 -9h-469v63h469v-63z" />
    <glyph glyph-name="lozenge" unicode="&#x25ca;" horiz-adv-x="601" 
d="M548 330l-208 -378h-83l-205 378l208 378h82zM455 328l-135 250c-7 15 -16 36 -19 49h-3c-5 -15 -12 -32 -19 -49l-134 -246l136 -253c8 -17 15 -36 17 -47h4c4 12 12 35 18 46z" />
    <glyph glyph-name="uni00A0" unicode="&#xa0;" horiz-adv-x="290" 
 />
    <glyph glyph-name="uni00AD" unicode="&#xad;" horiz-adv-x="245" 
d="M245 300v-91h-245v91h245z" />
    <glyph glyph-name="uni02C9" unicode="&#x2c9;" horiz-adv-x="500" 
d="M397 660v-63h-294v63h294z" />
    <glyph glyph-name="uni2215" unicode="&#x2215;" horiz-adv-x="144" 
d="M-169 0l411 667h72l-412 -667h-71z" />
    <glyph glyph-name="uni03A9" unicode="&#x3a9;" horiz-adv-x="756" 
d="M196 82v3c-69 54 -136 148 -136 276c0 175 134 311 320 311c197 0 315 -153 315 -307c0 -131 -68 -228 -138 -280v-3h152v-82h-269v62c76 43 148 133 148 283c0 121 -74 244 -208 244c-127 0 -213 -108 -213 -247c0 -138 71 -239 148 -280v-62h-269v82h150z" />
    <glyph glyph-name="o.superior" horiz-adv-x="357" 
d="M323 520c0 -101 -70 -157 -152 -157c-103 0 -145 85 -145 156c0 83 54 155 150 155c95 0 147 -72 147 -154zM239 520c0 41 -11 93 -63 93c-55 0 -66 -53 -66 -95c0 -58 22 -94 64 -94c57 0 65 60 65 96z" />
    <glyph glyph-name="uni2206" unicode="&#x2206;" horiz-adv-x="682" 
d="M28 0v62l252 616h126l247 -615v-63h-625zM139 83h397l-133 322c-17 49 -51 129 -63 171h-4c-9 -32 -40 -106 -57 -155z" />
    <glyph glyph-name="fi" unicode="&#xfb01;" horiz-adv-x="540" 
d="M473 667v-117h-115v117h115zM473 493v-493h-115v493h115zM199 406v-406h-115v406h-73v87h73c1 43 2 92 32 130c19 25 58 54 123 54c23 0 43 -1 68 -5v-88h-26c-70 -1 -82 -22 -82 -72v-19h108v-87h-108z" />
    <glyph glyph-name="fl" unicode="&#xfb02;" horiz-adv-x="540" 
d="M474 667v-667h-115v667h115zM199 406v-406h-115v406h-73v87h73c1 43 2 92 32 130c19 25 58 54 123 54c23 0 43 -1 68 -5v-88h-26c-70 -1 -82 -22 -82 -72v-19h108v-87h-108z" />
    <glyph glyph-name="onesuperior" unicode="&#xb9;" horiz-adv-x="387" 
d="M258 676v-344h105v-65h-301v65h113v239c-57 -47 -90 -60 -115 -70v79c60 22 69 25 108 58c22 19 26 25 34 38h56z" />
    <glyph glyph-name="threesuperior" unicode="&#xb3;" horiz-adv-x="387" 
d="M138 440v63h41c10 0 78 1 78 54c0 51 -53 53 -67 53c-53 0 -71 -30 -82 -57l-76 12c20 76 91 108 161 108c69 0 146 -34 146 -109c0 -64 -48 -84 -63 -89c30 -12 76 -31 76 -95c0 -67 -61 -119 -162 -119c-91 0 -150 47 -170 110l78 18c6 -17 21 -66 90 -66
c57 0 80 31 80 57c0 12 -6 60 -75 60h-55z" />
    <glyph glyph-name="twosuperior" unicode="&#xb2;" horiz-adv-x="387" 
d="M348 335v-68h-317v74c39 24 101 62 139 86c22 14 51 36 70 60c15 18 21 33 21 52c0 34 -24 66 -72 66c-69 0 -76 -62 -79 -84l-79 19c15 85 77 133 162 133c100 0 156 -60 156 -135c0 -87 -67 -124 -211 -203h210z" />
    <glyph glyph-name="uni2010" unicode="&#x2010;" horiz-adv-x="245" 
d="M245 300v-91h-245v91h245z" />
    </font>
</defs>
</svg>
