<?xml version="1.0" encoding="UTF-8" standalone="no"?>
<svg width="70px" height="18px" viewBox="0 0 70 18" version="1.1" xmlns="http://www.w3.org/2000/svg" xmlns:xlink="http://www.w3.org/1999/xlink" xmlns:sketch="http://www.bohemiancoding.com/sketch/ns">
    <!-- Generator: Sketch 3.3 (11970) - http://www.bohemiancoding.com/sketch -->
    <title>Fill-1</title>
    <desc>Created with Sketch.</desc>
    <defs></defs>
    <g id="About" stroke="none" stroke-width="1" fill="none" fill-rule="evenodd" sketch:type="MSPage">
        <g id="Data" sketch:type="MSArtboardGroup" transform="translate(-1103.000000, -1696.000000)" fill="#FFFFFF">
            <g id="footer" sketch:type="MSLayerGroup" transform="translate(0.000000, 1665.000000)">
                <g id="Fill-1-+-Website-by" transform="translate(1010.000000, 28.000000)" sketch:type="MSShapeGroup">
                    <path d="M97.5236481,14.2715856 L95.4691413,7.45699354 L93.0360658,7.45699354 L96.2260591,17.3002566 L98.7131687,17.3002566 L101.957306,7.45699354 L99.5242305,7.45699354 L97.5236481,14.2715856 Z M102.065374,7.45699354 L104.390272,7.45699354 L104.390272,17.3002566 L102.065374,17.3002566 L102.065374,7.45699354 Z M102.065374,3.56297231 L104.390272,3.56297231 L104.390272,5.94260313 L102.065374,5.94260313 L102.065374,3.56297231 Z M105.471724,9.5662642 L110.283731,9.5662642 L104.931053,15.515506 L104.931053,17.3002566 L113.365656,17.3002566 L113.365656,15.1909859 L108.229114,15.1909859 L113.365656,9.29579418 L113.365656,7.45699354 L105.471724,7.45699354 L105.471724,9.5662642 Z M113.906327,9.5662642 L118.6643,9.5662642 L113.365656,15.515506 L113.365656,17.3002566 L121.854293,17.3002566 L121.854293,15.1909859 L116.609683,15.1909859 L121.854293,9.29579418 L121.854293,7.45699354 L113.906327,7.45699354 L113.906327,9.5662642 Z M129.045341,11.891845 C129.045341,12.6489852 129.045341,13.5684954 128.666882,14.2715856 C128.50467,14.6501558 127.909855,15.353246 126.774478,15.353246 C125.09832,15.353246 124.882074,14.1093256 124.882074,13.1357653 L124.882074,7.45699354 L122.503142,7.45699354 L122.503142,13.6765955 C122.503142,14.5419458 122.557177,15.4613461 123.097848,16.2726463 C123.530341,16.8675265 124.287368,17.5706168 125.963416,17.5706168 C127.693608,17.5706168 128.666882,16.8134765 129.099375,16.3266964 L129.099375,17.3543067 L131.478417,17.3543067 L131.478417,7.5110436 L129.099375,7.5110436 L129.099375,11.891845 L129.045341,11.891845 Z M140.724082,9.9988844 C140.724082,8.26818388 139.480527,7.18652352 136.614848,7.18652352 C132.505725,7.18652352 132.343513,9.67436432 132.343513,10.3234045 L134.722444,10.4316145 C134.722444,9.89078428 134.884656,8.9712741 136.668883,8.9712741 C138.128794,8.9712741 138.34504,9.67436432 138.34504,10.4316145 C137.696191,10.6479246 136.777061,10.9182847 135.317259,11.1347047 C133.478889,11.5132748 131.802841,12.324575 131.802841,14.4878957 C131.802841,16.1644363 133.10043,17.5165667 135.371294,17.5165667 C136.560814,17.5165667 137.642157,17.0297866 138.291006,16.4889564 L138.34504,17.2462065 L141.156575,17.2462065 C140.724082,16.5971664 140.724082,16.4349063 140.724082,15.6236061 L140.724082,9.9988844 Z M138.291006,13.7306456 C138.291006,14.9746758 136.993307,15.515506 135.857931,15.515506 C134.66841,15.515506 134.235917,14.9746758 134.235917,14.3256357 C134.235917,13.2980254 135.317259,13.1357653 136.398602,12.9735053 C137.263698,12.8652953 137.858403,12.5949352 138.236862,12.4326751 L138.236862,13.7306456 L138.291006,13.7306456 Z M141.805424,3.45476233 L144.184355,3.45476233 L144.184355,17.3543067 L141.805424,17.3543067 L141.805424,3.45476233 Z M145.42791,3.56297231 L147.752808,3.56297231 L147.752808,5.94260313 L145.42791,5.94260313 L145.42791,3.56297231 Z M159.269336,7.45699354 L157.430965,14.7582559 L155.214246,7.45699354 L151.483582,7.45699354 L151.483582,3.94154245 L149.104541,3.94154245 L149.104541,7.45699354 L145.373876,7.45699354 L145.373876,17.3002566 L147.698773,17.3002566 L147.698773,9.13353414 L149.104541,9.13353414 L149.104541,14.9746758 C149.104541,16.5971664 149.75339,17.3543067 151.916075,17.3543067 C152.727137,17.3543067 153.267808,17.2460967 153.592123,17.1920466 L153.592123,15.1909859 C153.321842,15.245036 152.943383,15.2990861 152.564815,15.2990861 C152.456746,15.2990861 151.970109,15.2990861 151.699719,15.0287259 C151.483472,14.8124158 151.483472,14.3796857 151.483472,14.0011156 L151.483472,9.13353414 L153.213664,9.13353414 L156.187411,17.4625166 C156.133376,17.6788267 155.91702,18.4901269 154.565397,18.4901269 C154.403185,18.4901269 154.132794,18.4901269 153.916548,18.435967 L153.916548,20.4371375 C154.295006,20.4911876 154.565397,20.5452377 155.268281,20.5452377 C156.025198,20.5452377 156.619904,20.4371375 157.268753,19.9503574 C158.079815,19.3013173 158.566452,17.5165667 158.944911,16.3266964 L161.648267,7.45699354 L159.269336,7.45699354 Z M160.404712,14.6501558 L163,14.6501558 L163,17.3543067 L160.404712,17.3543067 L160.404712,14.6501558 Z" id="Fill-1"></path>
                </g>
            </g>
        </g>
    </g>
</svg>