<?xml version="1.0" encoding="UTF-8" standalone="no"?>
<svg width="37px" height="37px" viewBox="0 0 37 37" version="1.1" xmlns="http://www.w3.org/2000/svg" xmlns:xlink="http://www.w3.org/1999/xlink" xmlns:sketch="http://www.bohemiancoding.com/sketch/ns">
    <!-- Generator: Sketch 3.3.3 (12081) - http://www.bohemiancoding.com/sketch -->
    <title>Rectangle 312 Copy + BETA Copy 2</title>
    <desc>Created with Sketch.</desc>
    <defs>
        <rect id="path-1" x="0" y="0" width="37" height="37"></rect>
    </defs>
    <g id="Header" stroke="none" stroke-width="1" fill="none" fill-rule="evenodd" sketch:type="MSPage">
        <g id="header-beta-a" sketch:type="MSArtboardGroup">
            <g id="Rectangle-312-Copy-+-BETA-Copy-2" sketch:type="MSLayerGroup">
                <mask id="mask-2" sketch:name="Mask" fill="white">
                    <use xlink:href="#path-1"></use>
                </mask>
                <use id="Mask" sketch:type="MSShapeGroup" xlink:href="#path-1"></use>
                <g mask="url(#mask-2)" sketch:type="MSShapeGroup">
                    <g transform="translate(14.146447, 13.439340) rotate(-45.000000) translate(-14.146447, -13.439340) translate(-14.853553, 6.939340)">
                        <rect id="Rectangle-312-Copy" fill="#478540" x="0.857864376" y="1" width="57" height="12"></rect>
                        <path d="M17.585,3.3181875 L17.585,9.4921875 L20.348,9.4921875 C20.879,9.4921875 21.482,9.4921875 21.932,9.1591875 C22.364,8.8441875 22.688,8.3671875 22.688,7.8271875 C22.688,7.0261875 22.166,6.4411875 21.401,6.2881875 L21.401,6.2701875 C22.049,6.1081875 22.517,5.6401875 22.517,4.9381875 C22.517,4.3531875 22.256,3.9031875 21.761,3.5881875 C21.338,3.3181875 20.834,3.3181875 20.348,3.3181875 L17.585,3.3181875 Z M19.025,4.4161875 L19.898,4.4161875 C20.141,4.4161875 20.519,4.3891875 20.726,4.5061875 C20.924,4.6231875 21.032,4.8391875 21.032,5.0641875 C21.032,5.2711875 20.942,5.4961875 20.771,5.6221875 C20.555,5.7841875 20.258,5.7661875 20.006,5.7661875 L19.025,5.7661875 L19.025,4.4161875 Z M19.025,6.8641875 L20.087,6.8641875 C20.321,6.8641875 20.609,6.8641875 20.816,6.9811875 C21.023,7.0981875 21.167,7.3411875 21.167,7.5751875 C21.167,7.8271875 21.05,8.0791875 20.843,8.2141875 C20.618,8.3671875 20.285,8.3491875 20.024,8.3491875 L19.025,8.3491875 L19.025,6.8641875 Z M28.358,4.5151875 L28.358,3.3181875 L23.948,3.3181875 L23.948,9.4921875 L28.358,9.4921875 L28.358,8.2951875 L25.388,8.2951875 L25.388,6.9271875 L27.728,6.9271875 L27.728,5.7661875 L25.388,5.7661875 L25.388,4.5151875 L28.358,4.5151875 Z M33.731,3.3181875 L29.177,3.3181875 L29.177,4.5421875 L30.743,4.5421875 L30.743,9.4921875 L32.183,9.4921875 L32.183,4.5421875 L33.731,4.5421875 L33.731,3.3181875 Z M37.493,3.3181875 L35.819,3.3181875 L33.839,9.4921875 L35.108,9.4921875 L35.495,8.2231875 L37.493,8.2231875 L37.871,9.4921875 L39.428,9.4921875 L37.493,3.3181875 Z M35.846,7.0891875 L36.503,4.9201875 L37.16,7.0891875 L35.846,7.0891875 Z" id="BETA-Copy-2" fill="#FFFFFF"></path>
                    </g>
                </g>
            </g>
        </g>
    </g>
</svg>