<svg style="position: absolute; width: 0; height: 0;" width="0" height="0" version="1.1" xmlns="http://www.w3.org/2000/svg" xmlns:xlink="http://www.w3.org/1999/xlink">
<defs>
<symbol id="icon-icon-analyze" viewBox="0 0 1280 1024">
  <title>icon-analyze</title>
  <path class="path1" d="M242.198 192h192v576h-192v-576zM562.198 320h192v448h-192v-448zM882.198 0h192v768h-192v-768zM1266.198 896v128h-1216v-128h1216z"></path>
</symbol>
<symbol id="icon-icon-search" viewBox="0 0 1024 1024">
  <title>icon-search</title>
  <path class="path1" d="M973.802 859.239l-108.707 108.060-261.586-264.339c-61.128 41.074-134.713 65.040-213.895 65.040-212.077 0-384-171.923-384-384s171.923-384 384-384c212.077 0 384 171.923 384 384 0 79.257-24.012 152.906-65.157 214.070l265.345 261.169zM389.614 640c141.385 0 256-114.615 256-256s-114.615-256-256-256c-141.385 0-256 114.615-256 256s114.615 256 256 256z"></path>
</symbol>
<symbol id="icon-icon-settings" viewBox="0 0 1024 1024">
  <title>icon-settings</title>
  <path class="path1" d="M682.667 512c0-47.111-16.667-87.333-50-120.667s-73.555-50-120.667-50c-47.111 0-87.333 16.667-120.667 50s-50 73.555-50 120.667c0 47.111 16.667 87.333 50 120.667s73.555 50 120.667 50c47.111 0 87.333-16.667 120.667-50s50-73.555 50-120.667v0zM1024 439.333v148c0 5.333-1.778 10.444-5.333 15.333s-8 7.778-13.333 8.667l-123.333 18.667c-8.445 24-17.111 44.222-26 60.667 15.556 22.222 39.333 52.889 71.333 92 4.444 5.333 6.667 10.889 6.667 16.667s-2 10.889-6 15.333c-12 16.445-34 40.444-66 72s-52.889 47.333-62.667 47.333c-5.333 0-11.111-2-17.333-6l-92-72c-19.556 10.222-39.778 18.667-60.667 25.333-7.111 60.445-13.556 101.778-19.333 124-3.111 12.445-11.111 18.667-24 18.667h-148c-6.222 0-11.667-1.889-16.333-5.667s-7.222-8.556-7.667-14.333l-18.667-122.667c-21.778-7.111-41.778-15.333-60-24.667l-94 71.333c-4.445 4-10 6-16.667 6-6.222 0-11.778-2.444-16.667-7.333-56-50.667-92.667-88-110-112-3.111-4.445-4.667-9.556-4.667-15.333 0-5.333 1.778-10.444 5.333-15.333 6.667-9.333 18-24.111 34-44.333s28-35.889 36-47c-12-22.222-21.111-44.222-27.333-66l-122-18c-5.778-0.889-10.444-3.667-14-8.333s-5.333-9.889-5.333-15.667v-148c0-5.333 1.778-10.444 5.333-15.333s7.778-7.778 12.667-8.667l124-18.667c6.222-20.445 14.889-40.889 26-61.333-17.778-25.334-41.555-56-71.333-92-4.444-5.333-6.667-10.667-6.667-16 0-4.444 2-9.555 6-15.333 11.556-16 33.444-39.889 65.667-71.667s53.222-47.667 63-47.667c5.778 0 11.556 2.222 17.333 6.667l92 71.333c19.556-10.222 39.778-18.667 60.667-25.333 7.111-60.445 13.556-101.778 19.333-124 3.111-12.445 11.111-18.667 24-18.667h148c6.222 0 11.667 1.889 16.333 5.667s7.222 8.556 7.667 14.333l18.667 122.667c21.778 7.111 41.778 15.333 60 24.667l94.667-71.333c4-4 9.333-6 16-6 5.778 0 11.333 2.222 16.667 6.667 57.334 52.889 94 90.667 110 113.333 3.111 3.555 4.667 8.444 4.667 14.667 0 5.333-1.778 10.444-5.333 15.333-6.667 9.333-18 24.111-34 44.333s-28 35.889-36 47c11.556 22.222 20.667 44 27.333 65.333l122 18.667c5.778 0.889 10.444 3.667 14 8.333s5.333 9.889 5.333 15.667v0z"></path>
</symbol>
<symbol id="icon-icon-share" viewBox="0 0 1088 1024">
  <title>icon-share</title>
  <path class="path1" d="M29.802 512c0 106.24 85.76 192 192 192 51.84 0 99.2-20.48 133.12-53.76l316.16 158.080c-0.64 7.68-1.28 15.36-1.28 23.68 0 106.24 85.76 192 192 192s192-85.76 192-192c0-106.24-85.76-192-192-192-51.84 0-98.56 20.48-133.12 53.76l-316.8-158.080c1.28-7.68 1.92-15.36 1.92-23.68s-0.64-16-1.92-23.68l316.8-158.080c33.92 33.28 81.28 53.76 133.12 53.76 106.24 0 192-85.76 192-192s-85.76-192-192-192c-106.24 0-192 85.76-192 192 0 8.32 0.64 16 1.28 23.68l-316.16 158.080c-33.92-33.28-81.28-53.76-133.12-53.76-106.24 0-192 85.76-192 192z"></path>
</symbol>
</defs>
</svg>
