<?xml version="1.0" encoding="utf-8"?>
<!-- Generated by IcoMoon.io -->
<!DOCTYPE svg PUBLIC "-//W3C//DTD SVG 1.1//EN" "http://www.w3.org/Graphics/SVG/1.1/DTD/svg11.dtd">
<svg version="1.1" xmlns="http://www.w3.org/2000/svg" xmlns:xlink="http://www.w3.org/1999/xlink" width="130" height="32" viewBox="0 0 130 32">
<path fill="#64D1B8" d="M8.4 20.236l-3.813-12.643h-4.515l5.92 18.262h4.616l6.021-18.262h-4.515l-3.713 12.643z"></path>
<path fill="#64D1B8" d="M16.829 7.593h4.315v18.262h-4.315v-18.262z"></path>
<path fill="#64D1B8" d="M16.829 0.368h4.315v4.415h-4.315v-4.415z"></path>
<path fill="#64D1B8" d="M23.151 11.507h8.93l-9.934 11.038v3.311h15.654v-3.913h-9.533l9.533-10.937v-3.412h-14.65v3.913z"></path>
<path fill="#64D1B8" d="M38.805 11.507h8.83l-9.834 11.038v3.311h15.754v-3.913h-9.733l9.733-10.937v-3.412h-14.75v3.913z"></path>
<path fill="#64D1B8" d="M66.901 15.821c0 1.405 0 3.111-0.702 4.415-0.301 0.702-1.405 2.007-3.512 2.007-3.111 0-3.512-2.308-3.512-4.114v-10.536h-4.415v11.539c0 1.605 0.1 3.311 1.104 4.817 0.803 1.104 2.208 2.408 5.318 2.408 3.211 0 5.017-1.405 5.82-2.308v1.907h4.415v-18.262h-4.415v8.128h-0.1z"></path>
<path fill="#64D1B8" d="M88.575 12.309c0-3.211-2.308-5.218-7.626-5.218-7.626 0-7.927 4.616-7.927 5.82l4.415 0.201c0-1.003 0.301-2.709 3.612-2.709 2.709 0 3.111 1.304 3.111 2.709-1.204 0.401-2.91 0.903-5.619 1.304-3.412 0.702-6.522 2.208-6.522 6.221 0 3.111 2.408 5.619 6.623 5.619 2.208 0 4.214-0.903 5.419-1.907l0.1 1.405h5.218c-0.803-1.204-0.803-1.505-0.803-3.010v-10.436zM84.059 19.233c0 2.308-2.408 3.311-4.515 3.311-2.208 0-3.010-1.003-3.010-2.208 0-1.907 2.007-2.208 4.014-2.509 1.606-0.201 2.709-0.702 3.412-1.003v2.408h0.1z"></path>
<path fill="#64D1B8" d="M90.582 0.168h4.415v25.788h-4.415v-25.788z"></path>
<path fill="#64D1B8" d="M97.304 0.368h4.315v4.415h-4.315v-4.415z"></path>
<path fill="#64D1B8" d="M122.992 7.593l-3.412 13.546-4.114-13.546h-6.924v-6.522h-4.415v6.522h-6.924v18.262h4.315v-15.152h2.609v10.837c0 3.010 1.204 4.415 5.218 4.415 1.505 0 2.509-0.201 3.111-0.301v-3.713c-0.502 0.1-1.204 0.201-1.907 0.201-0.201 0-1.104 0-1.606-0.502-0.401-0.401-0.401-1.204-0.401-1.907v-9.031h3.211l5.519 15.453c-0.1 0.401-0.502 1.907-3.010 1.907-0.301 0-0.803 0-1.204-0.1v3.713c0.702 0.1 1.204 0.201 2.509 0.201 1.405 0 2.508-0.201 3.713-1.104 1.505-1.204 2.408-4.515 3.111-6.723l5.017-16.456h-4.415z"></path>
<path fill="#64D1B8" d="M125.099 20.939h4.817v5.017h-4.817v-5.017z"></path>
</svg>
