<?xml version="1.0" encoding="UTF-8" standalone="no"?>
<svg width="12px" height="13px" viewBox="0 0 12 13" version="1.1" xmlns="http://www.w3.org/2000/svg" xmlns:xlink="http://www.w3.org/1999/xlink" xmlns:sketch="http://www.bohemiancoding.com/sketch/ns">
    <!-- Generator: Sketch 3.3 (11970) - http://www.bohemiancoding.com/sketch -->
    <title>Rectangle 1 Copy 28</title>
    <desc>Created with Sketch.</desc>
    <defs></defs>
    <g id="Map" stroke="none" stroke-width="1" fill="none" fill-rule="evenodd" sketch:type="MSPage">
        <g id="Map_Layer_settings" sketch:type="MSArtboardGroup" transform="translate(-321.000000, -282.000000)" fill="#C0C0C0">
            <path d="M330,286.014719 L332,286.014719 L332,293.014719 L325,293.014719 L325,288.507359 L325,291 L330,291 L330,286.014719 Z M330,285.014719 L330,282 L321,282 L321,291 L324,291 L324,294.014719 L333,294.014719 L333,285.014719 L330,285.014719 Z M329,285.014719 L329,283 L322,283 L322,290 L324,290 L324,285.014719 L329,285.014719 L329,285.014719 Z" id="Rectangle-1-Copy-28" sketch:type="MSShapeGroup" transform="translate(327.000000, 288.007359) scale(-1, 1) translate(-327.000000, -288.007359) "></path>
        </g>
    </g>
</svg>