<?xml version="1.0" encoding="utf-8"?>
<!-- Generated by IcoMoon.io -->
<!DOCTYPE svg PUBLIC "-//W3C//DTD SVG 1.1//EN" "http://www.w3.org/Graphics/SVG/1.1/DTD/svg11.dtd">
<svg version="1.1" xmlns="http://www.w3.org/2000/svg" xmlns:xlink="http://www.w3.org/1999/xlink" width="34" height="32" viewBox="0 0 34 32">
<path fill="#000000" d="M0.931 16c0 3.32 2.68 6 6 6 1.62 0 3.1-0.64 4.16-1.68l9.88 4.94c-0.020 0.24-0.040 0.48-0.040 0.74 0 3.32 2.68 6 6 6s6-2.68 6-6c0-3.32-2.68-6-6-6-1.62 0-3.080 0.64-4.16 1.68l-9.9-4.94c0.040-0.24 0.060-0.48 0.060-0.74s-0.020-0.5-0.060-0.74l9.9-4.94c1.060 1.040 2.54 1.68 4.16 1.68 3.32 0 6-2.68 6-6s-2.68-6-6-6c-3.32 0-6 2.68-6 6 0 0.26 0.020 0.5 0.040 0.74l-9.88 4.94c-1.060-1.040-2.54-1.68-4.16-1.68-3.32 0-6 2.68-6 6z"></path>
</svg>
