<?xml version="1.0" encoding="UTF-8" standalone="no"?>
<svg width="1280px" height="765px" viewBox="0 0 1280 765" version="1.1" xmlns="http://www.w3.org/2000/svg" xmlns:xlink="http://www.w3.org/1999/xlink" xmlns:sketch="http://www.bohemiancoding.com/sketch/ns">
    <!-- Generator: Sketch 3.3 (11970) - http://www.bohemiancoding.com/sketch -->
    <title>Rectangle 111</title>
    <desc>Created with Sketch.</desc>
    <defs></defs>
    <g id="Journey-real" stroke="none" stroke-width="1" fill="none" fill-rule="evenodd" sketch:type="MSPage">
        <g id="Journey_6" sketch:type="MSArtboardGroup" transform="translate(0.000000, -75.000000)" fill="#FFFFFF">
            <path d="M4.40758541e-14,681.055856 L-0.393928576,681.351801 L-0.393928576,840.431472 L516.481843,840.431472 L516.481843,840.431472 L516.502384,840 L1280,840 L1280,75 L0,75 L0,185.684575 C-0.131399129,185.785495 -0.262708671,185.886519 -0.393928576,185.98765 L-0.393928576,432.532232 L3.77475828e-15,432.609672 L0,681.055856 Z M4.40758541e-14,681.055856 L160.963186,560.129788 C211.789168,516.5535 272.29629,465.714498 272.29629,393.087351 C272.29629,344.669253 242.042729,305.934775 191.216747,305.934775 C113.767631,305.934775 91.9850676,385.824636 88.3546404,449.978616 L3.77475828e-15,432.609672 L0,185.684575 C55.54455,143.025488 127.093871,119.525099 209.368883,119.525099 C375.158396,119.525099 515.534918,209.09858 515.534918,388.245541 C515.534918,477.819022 474.390075,544.393907 409.042384,602.495624 L216.629738,746.539465 L197.267459,758.643989 L520.375488,758.643989 L516.502384,840 L0,840 L0,681.055856 Z" id="Rectangle-111" sketch:type="MSShapeGroup"></path>
        </g>
    </g>
</svg>