<?xml version="1.0" encoding="utf-8"?>
<!-- Generated by IcoMoon.io -->
<!DOCTYPE svg PUBLIC "-//W3C//DTD SVG 1.1//EN" "http://www.w3.org/Graphics/SVG/1.1/DTD/svg11.dtd">
<svg version="1.1" xmlns="http://www.w3.org/2000/svg" xmlns:xlink="http://www.w3.org/1999/xlink" width="34" height="32" viewBox="0 0 34 32">
<path fill="#000000" d="M8.486 6.304c0 1.071-0.868 1.939-1.939 1.939s-1.939-0.868-1.939-1.939c0-1.071 0.868-1.939 1.939-1.939s1.939 0.868 1.939 1.939z"></path>
<path fill="#000000" d="M8.486 12.768c0 1.071-0.868 1.939-1.939 1.939s-1.939-0.868-1.939-1.939c0-1.071 0.868-1.939 1.939-1.939s1.939 0.868 1.939 1.939z"></path>
<path fill="#000000" d="M8.486 19.232c0 1.071-0.868 1.939-1.939 1.939s-1.939-0.868-1.939-1.939c0-1.071 0.868-1.939 1.939-1.939s1.939 0.868 1.939 1.939z"></path>
<path fill="#000000" d="M8.486 25.696c0 1.071-0.868 1.939-1.939 1.939s-1.939-0.868-1.939-1.939c0-1.071 0.868-1.939 1.939-1.939s1.939 0.868 1.939 1.939z"></path>
<path fill="#000000" d="M12.364 5.657h5.171v1.293h-5.171v-1.293z"></path>
<path fill="#000000" d="M12.364 12.121h12.928v1.293h-12.928v-1.293z"></path>
<path fill="#000000" d="M12.364 18.586h16.807v1.293h-16.807v-1.293z"></path>
<path fill="#000000" d="M12.364 25.050h10.343v1.293h-10.343v-1.293z"></path>
<path fill="#000000" d="M20.121 5.657h9.050v1.293h-9.050v-1.293z"></path>
</svg>
