<?xml version="1.0" encoding="UTF-8" standalone="no"?>
<svg width="5px" height="8px" viewBox="0 0 5 8" version="1.1" xmlns="http://www.w3.org/2000/svg" xmlns:xlink="http://www.w3.org/1999/xlink" xmlns:sketch="http://www.bohemiancoding.com/sketch/ns">
    <!-- Generator: Sketch 3.3 (11970) - http://www.bohemiancoding.com/sketch -->
    <title>Rectangle 299 Copy 3</title>
    <desc>Created with Sketch.</desc>
    <defs></defs>
    <g id="Map" stroke="none" stroke-width="1" fill="none" fill-rule="evenodd" sketch:type="MSPage">
        <g id="Map_Layer_settings" sketch:type="MSArtboardGroup" transform="translate(-940.000000, -608.000000)" fill="#666666" opacity="0.5">
            <path d="M940,614 L942,614 L942,616 L940,616 L940,614 Z M943,614 L945,614 L945,616 L943,616 L943,614 Z M940,611 L942,611 L942,613 L940,613 L940,611 Z M943,611 L945,611 L945,613 L943,613 L943,611 Z M940,608 L942,608 L942,610 L940,610 L940,608 Z M943,608 L945,608 L945,610 L943,610 L943,608 Z" id="Rectangle-299-Copy-3" sketch:type="MSShapeGroup"></path>
        </g>
    </g>
</svg>