<svg width="24" height="25" viewBox="0 0 24 25" fill="none" xmlns="http://www.w3.org/2000/svg">
<path fill-rule="evenodd" clip-rule="evenodd" d="M8.99992 2.75C9.41413 2.75 9.74992 3.08579 9.74992 3.5V4.75H12.7369C12.7457 4.74984 12.7546 4.74984 12.7634 4.75H14.9999C15.4141 4.75 15.7499 5.08579 15.7499 5.5C15.7499 5.91421 15.4141 6.25 14.9999 6.25H13.3747C12.8079 9.04185 11.6212 11.6079 9.96473 13.7984C10.1664 14.0308 10.3741 14.2578 10.5877 14.4791C10.8754 14.7771 10.867 15.2519 10.569 15.5396C10.271 15.8273 9.79619 15.8189 9.50851 15.5209C9.3354 15.3416 9.16584 15.1588 8.99993 14.9727C7.41266 16.7531 5.49097 18.2285 3.3337 19.3006C2.96276 19.4849 2.51262 19.3337 2.32829 18.9627C2.14395 18.5918 2.29521 18.1417 2.66615 17.9573C4.72241 16.9354 6.54565 15.5155 8.03517 13.7985C7.1078 12.572 6.32758 11.2277 5.72092 9.7919C5.55971 9.41034 5.73834 8.97034 6.11989 8.80913C6.50145 8.64792 6.94144 8.82655 7.10265 9.2081C7.60926 10.4072 8.24772 11.5372 8.99994 12.5801C10.3454 10.7147 11.3271 8.56998 11.8413 6.25H2.99992C2.58571 6.25 2.24992 5.91421 2.24992 5.5C2.24992 5.08579 2.58571 4.75 2.99992 4.75H8.24992V3.5C8.24992 3.08579 8.58571 2.75 8.99992 2.75ZM15.9999 10.75C16.284 10.75 16.5437 10.9105 16.6707 11.1646L20.164 18.1511C20.1689 18.1603 20.1735 18.1697 20.178 18.1791L21.6707 21.1646C21.856 21.5351 21.7058 21.9856 21.3353 22.1708C20.9648 22.3561 20.5143 22.2059 20.3291 21.8354L19.0364 19.25H12.9634L11.6707 21.8354C11.4855 22.2059 11.035 22.3561 10.6645 22.1708C10.294 21.9856 10.1439 21.5351 10.3291 21.1646L11.8218 18.1791C11.8263 18.1697 11.831 18.1603 11.8358 18.1511L15.3291 11.1646C15.4561 10.9105 15.7158 10.75 15.9999 10.75ZM13.7134 17.75H18.2864L15.9999 13.1771L13.7134 17.75Z" fill="#0089CC"/>
</svg>
