<?xml version="1.0" encoding="utf-8"?>
<!-- Generated by IcoMoon.io -->
<!DOCTYPE svg PUBLIC "-//W3C//DTD SVG 1.1//EN" "http://www.w3.org/Graphics/SVG/1.1/DTD/svg11.dtd">
<svg version="1.1" xmlns="http://www.w3.org/2000/svg" xmlns:xlink="http://www.w3.org/1999/xlink" width="32" height="32" viewBox="0 0 32 32">
<path fill="#000000" d="M8.945 16.172c0-3.498 3.159-6.335 7.055-6.335s7.055 2.838 7.055 6.335c0 3.498-3.159 6.335-7.055 6.335s-7.055-2.838-7.055-6.335zM31.742 16.172c-3.024-4.935-8.94-9.942-15.742-9.942s-12.718 5.007-15.742 9.942c3.024 4.935 8.94 9.942 15.742 9.942s12.718-5.007 15.742-9.942zM12.199 16.172c0 1.885 1.701 3.41 3.801 3.41s3.801-1.528 3.801-3.41c0-1.885-1.701-3.41-3.801-3.41s-3.801 1.528-3.801 3.41z"></path>
</svg>
