<?xml version="1.0" encoding="utf-8"?>
<!-- Generated by IcoMoon.io -->
<!DOCTYPE svg PUBLIC "-//W3C//DTD SVG 1.1//EN" "http://www.w3.org/Graphics/SVG/1.1/DTD/svg11.dtd">
<svg version="1.1" xmlns="http://www.w3.org/2000/svg" xmlns:xlink="http://www.w3.org/1999/xlink" width="32" height="32" viewBox="0 0 32 32">
<path fill="#000000" d="M26.359 3.572l-22.603 22.944 1.885 1.911 22.603-22.944-1.885-1.911zM22.69 13.851c0.236 0.676 0.365 1.396 0.365 2.149 0 3.749-3.159 6.789-7.055 6.789-0.65 0-1.274-0.088-1.872-0.246l-1.924 1.952c1.222 0.249 2.493 0.381 3.796 0.381 6.802 0 12.718-3.591 15.742-8.878-1.32-2.309-3.197-4.293-5.458-5.797l-3.594 3.648zM8.945 16c0-3.749 3.159-6.789 7.055-6.789 0.65 0 1.274 0.088 1.872 0.246l1.924-1.952c-1.222-0.251-2.493-0.381-3.796-0.381-6.802 0-12.718 3.591-15.742 8.878 1.32 2.309 3.197 4.293 5.458 5.797l3.594-3.648c-0.236-0.676-0.365-1.396-0.365-2.149zM14.863 12.51c-1.248 0.378-2.219 1.357-2.545 2.584l2.545-2.584zM17.137 19.49c1.248-0.378 2.219-1.354 2.545-2.584l-2.545 2.584z"></path>
</svg>
