<?xml version="1.0" encoding="UTF-8" standalone="no"?>
<svg width="12px" height="12px" viewBox="0 0 12 12" version="1.1" xmlns="http://www.w3.org/2000/svg" xmlns:xlink="http://www.w3.org/1999/xlink" xmlns:sketch="http://www.bohemiancoding.com/sketch/ns">
    <!-- Generator: Sketch 3.3.3 (12081) - http://www.bohemiancoding.com/sketch -->
    <title>settings</title>
    <desc>Created with Sketch.</desc>
    <defs></defs>
    <g stroke="none" stroke-width="1" fill="none" fill-rule="evenodd">
        <g id="Map_Layer_settings_b" sketch:type="MSArtboardGroup" transform="translate(-383.000000, -294.000000)" fill="#C0C0C0">
            <path d="M391,300 C391,299.447914 390.804689,298.976564 390.414062,298.585938 C390.023436,298.195311 389.552086,298 389,298 C388.447914,298 387.976564,298.195311 387.585938,298.585938 C387.195311,298.976564 387,299.447914 387,300 C387,300.552086 387.195311,301.023436 387.585938,301.414062 C387.976564,301.804689 388.447914,302 389,302 C389.552086,302 390.023436,301.804689 390.414062,301.414062 C390.804689,301.023436 391,300.552086 391,300 L391,300 Z M395,299.148438 L395,300.882812 C395,300.945313 394.979167,301.005208 394.9375,301.0625 C394.895833,301.119792 394.84375,301.153646 394.78125,301.164062 L393.335938,301.382812 C393.236979,301.664064 393.135417,301.901041 393.03125,302.09375 C393.213543,302.354168 393.492186,302.713539 393.867188,303.171875 C393.919271,303.234375 393.945312,303.299479 393.945312,303.367188 C393.945312,303.434896 393.921875,303.494791 393.875,303.546875 C393.734374,303.739584 393.476564,304.020831 393.101562,304.390625 C392.726561,304.760419 392.481771,304.945312 392.367188,304.945312 C392.304687,304.945312 392.23698,304.921875 392.164062,304.875 L391.085938,304.03125 C390.85677,304.151042 390.619793,304.25 390.375,304.328125 C390.291666,305.036462 390.216146,305.520832 390.148438,305.78125 C390.111979,305.927084 390.01823,306 389.867188,306 L388.132812,306 C388.059895,306 387.996094,305.977865 387.941406,305.933594 C387.886718,305.889323 387.856771,305.833334 387.851562,305.765625 L387.632812,304.328125 C387.377603,304.244791 387.14323,304.148438 386.929688,304.039062 L385.828125,304.875 C385.776041,304.921875 385.710938,304.945312 385.632812,304.945312 C385.559895,304.945312 385.494792,304.916667 385.4375,304.859375 C384.781247,304.265622 384.351564,303.828126 384.148438,303.546875 C384.111979,303.494791 384.09375,303.434896 384.09375,303.367188 C384.09375,303.304687 384.114583,303.244792 384.15625,303.1875 C384.234375,303.078124 384.367187,302.904949 384.554688,302.667969 C384.742188,302.430988 384.882812,302.247396 384.976562,302.117188 C384.835937,301.85677 384.729167,301.59896 384.65625,301.34375 L383.226562,301.132812 C383.158854,301.122396 383.104167,301.089844 383.0625,301.035156 C383.020833,300.980468 383,300.919271 383,300.851562 L383,299.117188 C383,299.054687 383.020833,298.994792 383.0625,298.9375 C383.104167,298.880208 383.153646,298.846354 383.210938,298.835938 L384.664062,298.617188 C384.73698,298.377603 384.838541,298.138022 384.96875,297.898438 C384.760416,297.601561 384.481773,297.24219 384.132812,296.820312 C384.080729,296.757812 384.054688,296.695313 384.054688,296.632812 C384.054688,296.580729 384.078125,296.520834 384.125,296.453125 C384.260417,296.265624 384.516925,295.985679 384.894531,295.613281 C385.272137,295.240884 385.518229,295.054688 385.632812,295.054688 C385.700521,295.054688 385.768229,295.080729 385.835938,295.132812 L386.914062,295.96875 C387.14323,295.848958 387.380207,295.75 387.625,295.671875 C387.708334,294.963538 387.783854,294.479168 387.851562,294.21875 C387.888021,294.072916 387.98177,294 388.132812,294 L389.867188,294 C389.940105,294 390.003906,294.022135 390.058594,294.066406 C390.113282,294.110677 390.143229,294.166666 390.148438,294.234375 L390.367188,295.671875 C390.622397,295.755209 390.85677,295.851562 391.070312,295.960938 L392.179688,295.125 C392.226563,295.078125 392.289062,295.054688 392.367188,295.054688 C392.434896,295.054688 392.5,295.080729 392.5625,295.132812 C393.234378,295.752607 393.664062,296.195311 393.851562,296.460938 C393.888021,296.502604 393.90625,296.559895 393.90625,296.632812 C393.90625,296.695313 393.885417,296.755208 393.84375,296.8125 C393.765625,296.921876 393.632813,297.095051 393.445312,297.332031 C393.257812,297.569012 393.117188,297.752604 393.023438,297.882812 C393.158855,298.14323 393.265625,298.398436 393.34375,298.648438 L394.773438,298.867188 C394.841146,298.877604 394.895833,298.910156 394.9375,298.964844 C394.979167,299.019532 395,299.080729 395,299.148438 L395,299.148438 Z" id="settings" sketch:type="MSShapeGroup"></path>
        </g>
    </g>
</svg>
