<?xml version="1.0" encoding="UTF-8" standalone="no"?>
<svg width="17px" height="16px" viewBox="0 0 17 16" version="1.1" xmlns="http://www.w3.org/2000/svg" xmlns:xlink="http://www.w3.org/1999/xlink" xmlns:sketch="http://www.bohemiancoding.com/sketch/ns">
    <!-- Generator: Sketch 3.3.3 (12081) - http://www.bohemiancoding.com/sketch -->
    <title>share</title>
    <desc>Created with Sketch.</desc>
    <defs></defs>
    <g id="Page-1" stroke="none" stroke-width="1" fill="none" fill-rule="evenodd" sketch:type="MSPage">
        <g id="Map_Layer_settings_b" sketch:type="MSArtboardGroup" transform="translate(-923.000000, -105.000000)" fill="#555555" opacity="0.9">
            <path d="M923.465657,113 C923.465657,114.66 924.805657,116 926.465657,116 C927.275657,116 928.015657,115.68 928.545657,115.16 L933.485657,117.63 C933.475657,117.75 933.465657,117.87 933.465657,118 C933.465657,119.66 934.805657,121 936.465657,121 C938.125657,121 939.465657,119.66 939.465657,118 C939.465657,116.34 938.125657,115 936.465657,115 C935.655657,115 934.925657,115.32 934.385657,115.84 L929.435657,113.37 C929.455657,113.25 929.465657,113.13 929.465657,113 C929.465657,112.87 929.455657,112.75 929.435657,112.63 L934.385657,110.16 C934.915657,110.68 935.655657,111 936.465657,111 C938.125657,111 939.465657,109.66 939.465657,108 C939.465657,106.34 938.125657,105 936.465657,105 C934.805657,105 933.465657,106.34 933.465657,108 C933.465657,108.13 933.475657,108.25 933.485657,108.37 L928.545657,110.84 C928.015657,110.32 927.275657,110 926.465657,110 C924.805657,110 923.465657,111.34 923.465657,113" id="share" sketch:type="MSShapeGroup"></path>
        </g>
    </g>
</svg>