<?xml version="1.0" encoding="utf-8"?>
<!-- Generated by IcoMoon.io -->
<!DOCTYPE svg PUBLIC "-//W3C//DTD SVG 1.1//EN" "http://www.w3.org/Graphics/SVG/1.1/DTD/svg11.dtd">
<svg version="1.1" xmlns="http://www.w3.org/2000/svg" xmlns:xlink="http://www.w3.org/1999/xlink" width="32" height="32" viewBox="0 0 32 32">
<path fill="#000000" d="M21.333 16c0-1.472-0.521-2.729-1.563-3.771s-2.299-1.563-3.771-1.563c-1.472 0-2.729 0.521-3.771 1.563s-1.563 2.299-1.563 3.771c0 1.472 0.521 2.729 1.563 3.771s2.299 1.563 3.771 1.563c1.472 0 2.729-0.521 3.771-1.563s1.563-2.299 1.563-3.771v0zM32 13.729v4.625c0 0.167-0.056 0.326-0.167 0.479s-0.25 0.243-0.417 0.271l-3.854 0.583c-0.264 0.75-0.535 1.382-0.813 1.896 0.486 0.694 1.229 1.653 2.229 2.875 0.139 0.167 0.208 0.34 0.208 0.521s-0.063 0.34-0.188 0.479c-0.375 0.514-1.063 1.264-2.063 2.25s-1.653 1.479-1.958 1.479c-0.167 0-0.347-0.063-0.542-0.188l-2.875-2.25c-0.611 0.319-1.243 0.583-1.896 0.792-0.222 1.889-0.424 3.181-0.604 3.875-0.097 0.389-0.347 0.583-0.75 0.583h-4.625c-0.194 0-0.365-0.059-0.51-0.177s-0.226-0.267-0.24-0.448l-0.583-3.833c-0.681-0.222-1.306-0.479-1.875-0.771l-2.938 2.229c-0.139 0.125-0.313 0.188-0.521 0.188-0.194 0-0.368-0.076-0.521-0.229-1.75-1.583-2.896-2.75-3.438-3.5-0.097-0.139-0.146-0.299-0.146-0.479 0-0.167 0.056-0.326 0.167-0.479 0.208-0.292 0.563-0.753 1.063-1.385s0.875-1.122 1.125-1.469c-0.375-0.694-0.66-1.382-0.854-2.063l-3.813-0.563c-0.181-0.028-0.326-0.115-0.438-0.26s-0.167-0.309-0.167-0.49v-4.625c0-0.167 0.056-0.326 0.167-0.479s0.243-0.243 0.396-0.271l3.875-0.583c0.194-0.639 0.465-1.278 0.813-1.917-0.556-0.792-1.299-1.75-2.229-2.875-0.139-0.167-0.208-0.333-0.208-0.5 0-0.139 0.063-0.299 0.188-0.479 0.361-0.5 1.045-1.247 2.052-2.24s1.663-1.49 1.969-1.49c0.181 0 0.361 0.069 0.542 0.208l2.875 2.229c0.611-0.319 1.243-0.583 1.896-0.792 0.222-1.889 0.424-3.181 0.604-3.875 0.097-0.389 0.347-0.583 0.75-0.583h4.625c0.194 0 0.365 0.059 0.51 0.177s0.226 0.267 0.24 0.448l0.583 3.833c0.681 0.222 1.306 0.479 1.875 0.771l2.958-2.229c0.125-0.125 0.292-0.188 0.5-0.188 0.181 0 0.354 0.069 0.521 0.208 1.792 1.653 2.938 2.833 3.438 3.542 0.097 0.111 0.146 0.264 0.146 0.458 0 0.167-0.056 0.326-0.167 0.479-0.208 0.292-0.563 0.753-1.063 1.385s-0.875 1.122-1.125 1.469c0.361 0.694 0.646 1.375 0.854 2.042l3.813 0.583c0.181 0.028 0.326 0.115 0.438 0.26s0.167 0.309 0.167 0.49v0z"></path>
</svg>
